<mxfile host="app.diagrams.net" modified="2023-07-27T10:38:44.711Z" agent="Mozilla/5.0 (X11; Linux x86_64) AppleWebKit/537.36 (KHTML, like Gecko) Chrome/112.0.0.0 Safari/537.36" version="21.6.1" etag="1vs1-Elp-P6f9g3_mOg4" type="device">
  <diagram id="f5EianUy5xT8adn2XweF" name="Page-1">
    <mxGraphModel dx="1362" dy="677" grid="0" gridSize="10" guides="1" tooltips="1" connect="1" arrows="1" fold="1" page="1" pageScale="1" pageWidth="827" pageHeight="1169" background="#ffffff" math="0" shadow="0">
      <root>
        <mxCell id="0" />
        <mxCell id="1" parent="0" />
        <mxCell id="10" value="" style="rounded=0;whiteSpace=wrap;html=1;fontFamily=Comic Sans MS;labelBackgroundColor=#3E6957;fillColor=#d5e8d4;strokeColor=#82b366;" parent="1" vertex="1">
          <mxGeometry x="483" y="360" width="312" height="662" as="geometry" />
        </mxCell>
        <mxCell id="7" value="" style="rounded=0;whiteSpace=wrap;html=1;fontFamily=Comic Sans MS;fontColor=none;noLabel=1;labelBackgroundColor=none;fillColor=#c6c5d4;" parent="1" vertex="1">
          <mxGeometry x="40" y="361" width="281" height="659" as="geometry" />
        </mxCell>
        <mxCell id="92" value="" style="rounded=0;whiteSpace=wrap;html=1;fontFamily=Comic Sans MS;fillColor=#3E6957;strokeColor=#3A5431;fontColor=#ffffff;" parent="1" vertex="1">
          <mxGeometry x="57" y="411" width="721" height="144" as="geometry" />
        </mxCell>
        <mxCell id="30" value="" style="rounded=0;whiteSpace=wrap;html=1;fontFamily=Comic Sans MS;fillColor=#3E6957;strokeColor=#3A5431;fontColor=#ffffff;" parent="1" vertex="1">
          <mxGeometry x="54" y="815" width="722" height="184" as="geometry" />
        </mxCell>
        <mxCell id="4" value="Ethereum" style="text;html=1;strokeColor=none;fillColor=none;align=center;verticalAlign=middle;whiteSpace=wrap;rounded=0;fontFamily=Comic Sans MS;fontSize=20;" parent="1" vertex="1">
          <mxGeometry x="113.5" y="361" width="135" height="40" as="geometry" />
        </mxCell>
        <mxCell id="84" value="&lt;font style=&quot;font-size: 10px&quot;&gt;Bridge &lt;br&gt;Validators&lt;/font&gt;" style="shape=hexagon;perimeter=hexagonPerimeter2;whiteSpace=wrap;html=1;fixedSize=1;fillColor=#F0EBDE;strokeColor=#d6b656;fontFamily=Comic Sans MS;rounded=0;size=20;" parent="1" vertex="1">
          <mxGeometry x="361" y="338" width="85" height="50" as="geometry" />
        </mxCell>
        <mxCell id="85" value="" style="endArrow=classic;html=1;exitX=1;exitY=0.75;exitDx=0;exitDy=0;strokeWidth=2;fontFamily=Comic Sans MS;labelBackgroundColor=none;rounded=0;curved=1;dashed=1;" parent="1" source="84" target="15" edge="1">
          <mxGeometry x="-0.0785" y="46" width="50" height="50" relative="1" as="geometry">
            <mxPoint x="565.07" y="592" as="sourcePoint" />
            <mxPoint x="580.0400000000001" y="431" as="targetPoint" />
            <mxPoint x="-1" as="offset" />
          </mxGeometry>
        </mxCell>
        <mxCell id="86" value="" style="endArrow=classic;dashed=1;html=1;strokeWidth=2;entryX=0;entryY=0.75;entryDx=0;entryDy=0;exitX=1;exitY=0;exitDx=0;exitDy=0;endFill=1;fontFamily=Comic Sans MS;labelBackgroundColor=none;rounded=0;curved=1;" parent="1" source="18" target="84" edge="1">
          <mxGeometry x="-0.0933" y="46" width="50" height="50" relative="1" as="geometry">
            <mxPoint x="342.9985714285713" y="427" as="sourcePoint" />
            <mxPoint x="370.07" y="592" as="targetPoint" />
            <mxPoint as="offset" />
          </mxGeometry>
        </mxCell>
        <mxCell id="87" value="" style="shape=umlActor;verticalLabelPosition=bottom;verticalAlign=top;html=1;outlineConnect=0;fontFamily=Comic Sans MS;fontSize=13;fontColor=#FFFFFF;strokeColor=default;strokeWidth=2;fillColor=none;rounded=0;" parent="1" vertex="1">
          <mxGeometry x="433" y="338" width="13" height="26" as="geometry" />
        </mxCell>
        <mxCell id="96" value="" style="shape=umlActor;verticalLabelPosition=bottom;verticalAlign=top;html=1;outlineConnect=0;fontFamily=Comic Sans MS;fontSize=13;fontColor=#FFFFFF;strokeColor=default;strokeWidth=2;fillColor=none;rounded=0;" parent="1" vertex="1">
          <mxGeometry x="361" y="332" width="13" height="26" as="geometry" />
        </mxCell>
        <mxCell id="97" value="" style="shape=umlActor;verticalLabelPosition=bottom;verticalAlign=top;html=1;outlineConnect=0;fontFamily=Comic Sans MS;fontSize=13;fontColor=#FFFFFF;strokeColor=default;strokeWidth=2;fillColor=none;rounded=0;" parent="1" vertex="1">
          <mxGeometry x="381" y="318" width="13" height="26" as="geometry" />
        </mxCell>
        <mxCell id="98" value="" style="shape=umlActor;verticalLabelPosition=bottom;verticalAlign=top;html=1;outlineConnect=0;fontFamily=Comic Sans MS;fontSize=13;fontColor=#FFFFFF;strokeColor=default;strokeWidth=2;fillColor=none;rounded=0;" parent="1" vertex="1">
          <mxGeometry x="411" y="318" width="13" height="26" as="geometry" />
        </mxCell>
        <mxCell id="42" value="" style="group" parent="1" vertex="1" connectable="0">
          <mxGeometry x="67" y="843" width="145" height="58" as="geometry" />
        </mxCell>
        <mxCell id="24" value="" style="rounded=0;whiteSpace=wrap;html=1;fontFamily=Comic Sans MS;" parent="42" vertex="1">
          <mxGeometry width="145" height="58" as="geometry" />
        </mxCell>
        <mxCell id="26" value="Omnibridge&lt;font style=&quot;font-size: 10px&quot;&gt;&lt;br&gt;&lt;font style=&quot;font-size: 10px&quot;&gt;(Native Token Bridge)&lt;/font&gt;&lt;/font&gt;" style="text;html=1;strokeColor=none;fillColor=none;align=center;verticalAlign=middle;whiteSpace=wrap;rounded=0;fontFamily=Comic Sans MS;fontSize=15;" parent="42" vertex="1">
          <mxGeometry x="8.52941176470588" y="13.533333333333333" width="127.94117647058822" height="29" as="geometry" />
        </mxCell>
        <mxCell id="110" value="" style="group" parent="1" vertex="1" connectable="0">
          <mxGeometry x="74" y="428" width="160" height="48" as="geometry" />
        </mxCell>
        <mxCell id="18" value="&lt;span style=&quot;font-size: 15px&quot;&gt;xDai Bridge&lt;/span&gt;&lt;font style=&quot;font-size: 15px&quot;&gt;&lt;br&gt;&lt;font style=&quot;font-size: 10px&quot;&gt;(xDai Bridge Contract)&lt;/font&gt;&lt;/font&gt;" style="rounded=0;whiteSpace=wrap;html=1;fontFamily=Comic Sans MS;" parent="110" vertex="1">
          <mxGeometry width="157.99825737216133" height="48" as="geometry" />
        </mxCell>
        <mxCell id="111" value="" style="endArrow=classic;dashed=1;html=1;strokeWidth=2;entryX=0.25;entryY=0;entryDx=0;entryDy=0;exitX=0.5;exitY=1;exitDx=0;exitDy=0;endFill=1;fontFamily=Comic Sans MS;labelBackgroundColor=none;rounded=0;curved=1;" parent="1" source="24" target="99" edge="1">
          <mxGeometry x="-0.0933" y="46" width="50" height="50" relative="1" as="geometry">
            <mxPoint x="269.9" y="788.88" as="sourcePoint" />
            <mxPoint x="339.99523809523805" y="714.9990476190477" as="targetPoint" />
            <mxPoint as="offset" />
          </mxGeometry>
        </mxCell>
        <mxCell id="15" value="&lt;span style=&quot;font-size: 15px&quot;&gt;xDai Bridge&lt;/span&gt;&lt;br style=&quot;font-size: 15px&quot;&gt;&lt;font style=&quot;font-size: 10px&quot;&gt;(Mints native gas token)&lt;/font&gt;" style="rounded=0;whiteSpace=wrap;html=1;fontFamily=Comic Sans MS;" parent="1" vertex="1">
          <mxGeometry x="502.5" y="428" width="258.5" height="47" as="geometry" />
        </mxCell>
        <mxCell id="104" value="&lt;font style=&quot;font-size: 10px&quot;&gt;Block Rewards Contract&lt;/font&gt;" style="rounded=0;whiteSpace=wrap;html=1;fontFamily=Comic Sans MS;verticalAlign=middle;" parent="1" vertex="1">
          <mxGeometry x="502" y="499" width="259" height="20" as="geometry" />
        </mxCell>
        <mxCell id="107" value="&lt;font style=&quot;font-size: 10px&quot;&gt;Consensus&lt;/font&gt;" style="rounded=0;whiteSpace=wrap;html=1;fontFamily=Comic Sans MS;" parent="1" vertex="1">
          <mxGeometry x="503" y="519" width="258" height="18" as="geometry" />
        </mxCell>
        <mxCell id="125" value="&lt;font style=&quot;font-size: 10px&quot;&gt;&lt;font style=&quot;font-size: 10px&quot;&gt;Canonical Dai&lt;/font&gt;&lt;br&gt;(native asset)&lt;br style=&quot;font-size: 12px&quot;&gt;&lt;/font&gt;" style="rounded=0;whiteSpace=wrap;html=1;fontFamily=Comic Sans MS;verticalAlign=middle;fillColor=#fff2cc;strokeColor=#d6b656;strokeWidth=2;dashed=1;fontSize=12;dashPattern=1 1;gradientColor=#ffd966;" parent="1" vertex="1">
          <mxGeometry x="670" y="570" width="99" height="42" as="geometry" />
        </mxCell>
        <mxCell id="126" value="&lt;font style=&quot;font-size: 10px&quot;&gt;Dai&amp;nbsp;&lt;br&gt;(ERC-20)&lt;br&gt;&lt;/font&gt;" style="rounded=0;whiteSpace=wrap;html=1;fontFamily=Comic Sans MS;verticalAlign=middle;fillColor=#fff2cc;strokeColor=#d6b656;gradientColor=#ffd966;" parent="1" vertex="1">
          <mxGeometry x="63" y="567" width="100" height="43" as="geometry" />
        </mxCell>
        <mxCell id="127" value="" style="endArrow=classic;dashed=1;html=1;strokeWidth=2;entryX=0.5;entryY=1;entryDx=0;entryDy=0;exitX=0.5;exitY=0;exitDx=0;exitDy=0;endFill=1;fontFamily=Comic Sans MS;labelBackgroundColor=none;rounded=0;curved=1;" parent="1" source="126" target="18" edge="1">
          <mxGeometry x="-0.0933" y="46" width="50" height="50" relative="1" as="geometry">
            <mxPoint x="240.5" y="770" as="sourcePoint" />
            <mxPoint x="240.5" y="720" as="targetPoint" />
            <mxPoint as="offset" />
          </mxGeometry>
        </mxCell>
        <mxCell id="128" value="" style="endArrow=classic;dashed=1;html=1;strokeWidth=2;entryX=0.5;entryY=0;entryDx=0;entryDy=0;exitX=0.5;exitY=1;exitDx=0;exitDy=0;endFill=1;fontFamily=Comic Sans MS;labelBackgroundColor=none;rounded=0;curved=1;" parent="1" source="15" target="104" edge="1">
          <mxGeometry x="-0.0933" y="46" width="50" height="50" relative="1" as="geometry">
            <mxPoint x="134" y="519" as="sourcePoint" />
            <mxPoint x="163" y="498" as="targetPoint" />
            <mxPoint as="offset" />
          </mxGeometry>
        </mxCell>
        <mxCell id="129" value="" style="endArrow=classic;dashed=1;html=1;strokeWidth=2;entryX=0.5;entryY=0;entryDx=0;entryDy=0;exitX=0.5;exitY=1;exitDx=0;exitDy=0;endFill=1;fontFamily=Comic Sans MS;labelBackgroundColor=none;rounded=0;curved=1;" parent="1" source="107" target="125" edge="1">
          <mxGeometry x="-0.0933" y="46" width="50" height="50" relative="1" as="geometry">
            <mxPoint x="539.9010000000001" y="485.1879999999999" as="sourcePoint" />
            <mxPoint x="574.5" y="514" as="targetPoint" />
            <mxPoint as="offset" />
          </mxGeometry>
        </mxCell>
        <mxCell id="130" value="Gnosis" style="text;html=1;align=center;verticalAlign=middle;whiteSpace=wrap;rounded=0;fontFamily=Comic Sans MS;fontSize=20;fontColor=#000000;" parent="1" vertex="1">
          <mxGeometry x="572" y="361" width="135" height="40" as="geometry" />
        </mxCell>
        <mxCell id="32" value="&lt;span style=&quot;font-size: 15px&quot;&gt;Arbitrary Message Bridge&lt;/span&gt;" style="text;html=1;strokeColor=none;fillColor=none;align=center;verticalAlign=middle;whiteSpace=wrap;rounded=0;fontFamily=Comic Sans MS;fontColor=#FFFFFF;" parent="1" vertex="1">
          <mxGeometry x="268" y="818" width="299" height="25" as="geometry" />
        </mxCell>
        <mxCell id="99" value="&lt;font style=&quot;font-size: 15px&quot;&gt;AMB Bridge&lt;/font&gt;&lt;br&gt;&lt;font style=&quot;font-size: 10px&quot;&gt;(Bridges Data)&lt;/font&gt;" style="rounded=0;whiteSpace=wrap;html=1;fontFamily=Comic Sans MS;" parent="1" vertex="1">
          <mxGeometry x="127" y="933" width="167" height="50" as="geometry" />
        </mxCell>
        <mxCell id="102" value="&lt;font style=&quot;font-size: 15px&quot;&gt;AMB Bridge&lt;/font&gt;&lt;br&gt;&lt;font style=&quot;font-size: 10px&quot;&gt;(Bridges Data)&lt;/font&gt;" style="rounded=0;whiteSpace=wrap;html=1;fontFamily=Comic Sans MS;" parent="1" vertex="1">
          <mxGeometry x="525" y="933" width="155" height="50" as="geometry" />
        </mxCell>
        <mxCell id="115" value="&lt;font style=&quot;font-size: 10px&quot;&gt;Bridge &lt;br&gt;Validators&lt;/font&gt;" style="shape=hexagon;perimeter=hexagonPerimeter2;whiteSpace=wrap;html=1;fixedSize=1;fillColor=#F0EBDE;strokeColor=#d6b656;fontFamily=Comic Sans MS;rounded=0;size=20;" parent="1" vertex="1">
          <mxGeometry x="361.5" y="1028" width="85" height="50" as="geometry" />
        </mxCell>
        <mxCell id="118" value="" style="shape=umlActor;verticalLabelPosition=bottom;verticalAlign=top;html=1;outlineConnect=0;fontFamily=Comic Sans MS;fontSize=13;fontColor=#FFFFFF;strokeColor=default;strokeWidth=2;fillColor=none;rounded=0;" parent="1" vertex="1">
          <mxGeometry x="415" y="1072" width="13" height="26" as="geometry" />
        </mxCell>
        <mxCell id="119" value="" style="shape=umlActor;verticalLabelPosition=bottom;verticalAlign=top;html=1;outlineConnect=0;fontFamily=Comic Sans MS;fontSize=13;fontColor=#FFFFFF;strokeColor=default;strokeWidth=2;fillColor=none;rounded=0;" parent="1" vertex="1">
          <mxGeometry x="377.5" y="1072" width="13" height="26" as="geometry" />
        </mxCell>
        <mxCell id="117" value="" style="endArrow=classic;dashed=1;html=1;strokeWidth=2;entryX=0;entryY=0.25;entryDx=0;entryDy=0;exitX=0.75;exitY=1;exitDx=0;exitDy=0;endFill=1;fontFamily=Comic Sans MS;labelBackgroundColor=none;rounded=0;curved=1;" parent="1" source="99" target="115" edge="1">
          <mxGeometry x="-0.0933" y="46" width="50" height="50" relative="1" as="geometry">
            <mxPoint x="301" y="998" as="sourcePoint" />
            <mxPoint x="371.0952380952381" y="924.1190476190477" as="targetPoint" />
            <mxPoint as="offset" />
          </mxGeometry>
        </mxCell>
        <mxCell id="116" value="" style="endArrow=classic;html=1;exitX=1;exitY=0.25;exitDx=0;exitDy=0;entryX=0.25;entryY=1;entryDx=0;entryDy=0;strokeWidth=2;fontFamily=Comic Sans MS;labelBackgroundColor=none;rounded=0;curved=1;dashed=1;" parent="1" source="115" target="102" edge="1">
          <mxGeometry x="-0.0785" y="46" width="50" height="50" relative="1" as="geometry">
            <mxPoint x="439.9047619047619" y="924.1190476190477" as="sourcePoint" />
            <mxPoint x="492" y="976" as="targetPoint" />
            <mxPoint x="-1" as="offset" />
          </mxGeometry>
        </mxCell>
        <mxCell id="120" value="" style="shape=umlActor;verticalLabelPosition=bottom;verticalAlign=top;html=1;outlineConnect=0;fontFamily=Comic Sans MS;fontSize=13;fontColor=#FFFFFF;strokeColor=default;strokeWidth=2;fillColor=none;rounded=0;" parent="1" vertex="1">
          <mxGeometry x="354.5" y="1052" width="13" height="26" as="geometry" />
        </mxCell>
        <mxCell id="121" value="" style="shape=umlActor;verticalLabelPosition=bottom;verticalAlign=top;html=1;outlineConnect=0;fontFamily=Comic Sans MS;fontSize=13;fontColor=#FFFFFF;strokeColor=default;strokeWidth=2;fillColor=none;rounded=0;" parent="1" vertex="1">
          <mxGeometry x="439.5" y="1052" width="13" height="26" as="geometry" />
        </mxCell>
        <mxCell id="131" value="&lt;font style=&quot;font-size: 10px&quot;&gt;Random Token&lt;br&gt;(ERC-20)&lt;br&gt;&lt;/font&gt;" style="rounded=0;whiteSpace=wrap;html=1;fontFamily=Comic Sans MS;verticalAlign=middle;fillColor=#e6d0de;strokeColor=#996185;gradientColor=#d5739d;" parent="1" vertex="1">
          <mxGeometry x="63" y="738" width="94" height="38" as="geometry" />
        </mxCell>
        <mxCell id="132" value="&lt;font style=&quot;font-size: 10px&quot;&gt;USDC (Eth)&lt;br&gt;(ERC-20)&lt;br&gt;&lt;/font&gt;" style="rounded=0;whiteSpace=wrap;html=1;fontFamily=Comic Sans MS;verticalAlign=middle;fillColor=#dae8fc;strokeColor=#6c8ebf;gradientColor=#7ea6e0;" parent="1" vertex="1">
          <mxGeometry x="171.5" y="738" width="94" height="38" as="geometry" />
        </mxCell>
        <mxCell id="134" value="Deposits" style="endArrow=classic;dashed=1;html=1;strokeWidth=2;entryX=0.25;entryY=0;entryDx=0;entryDy=0;exitX=0.25;exitY=1;exitDx=0;exitDy=0;endFill=1;fontFamily=Comic Sans MS;labelBackgroundColor=none;rounded=0;curved=1;" parent="1" source="131" target="24" edge="1">
          <mxGeometry x="-0.2379" y="31" width="50" height="50" relative="1" as="geometry">
            <mxPoint x="149.5" y="911" as="sourcePoint" />
            <mxPoint x="178.74999999999977" y="943" as="targetPoint" />
            <mxPoint as="offset" />
          </mxGeometry>
        </mxCell>
        <mxCell id="135" value="Deposits" style="endArrow=classic;dashed=1;html=1;strokeWidth=2;entryX=0.75;entryY=0;entryDx=0;entryDy=0;exitX=0.25;exitY=1;exitDx=0;exitDy=0;endFill=1;fontFamily=Comic Sans MS;labelBackgroundColor=none;rounded=0;curved=1;" parent="1" source="132" target="24" edge="1">
          <mxGeometry x="-0.7372" y="30" width="50" height="50" relative="1" as="geometry">
            <mxPoint x="96.5" y="800" as="sourcePoint" />
            <mxPoint x="113.25" y="851" as="targetPoint" />
            <mxPoint as="offset" />
          </mxGeometry>
        </mxCell>
        <mxCell id="136" value="&lt;font style=&quot;font-size: 10px&quot;&gt;Canonical ERC-20&lt;br&gt;(from Ethereum)&lt;br&gt;&lt;/font&gt;" style="rounded=0;whiteSpace=wrap;html=1;fontFamily=Comic Sans MS;verticalAlign=middle;fillColor=#e6d0de;strokeColor=#996185;strokeWidth=2;dashed=1;dashPattern=1 1;gradientColor=#d5739d;" parent="1" vertex="1">
          <mxGeometry x="537" y="734" width="102" height="39" as="geometry" />
        </mxCell>
        <mxCell id="137" value="&lt;font style=&quot;font-size: 10px&quot;&gt;Canonical USDC &lt;br&gt;(from Ethereum)&lt;br&gt;&lt;/font&gt;" style="rounded=0;whiteSpace=wrap;html=1;fontFamily=Comic Sans MS;verticalAlign=middle;fillColor=#dae8fc;strokeColor=#6c8ebf;dashed=1;dashPattern=1 1;strokeWidth=2;gradientColor=#7ea6e0;" parent="1" vertex="1">
          <mxGeometry x="667" y="735" width="102" height="38" as="geometry" />
        </mxCell>
        <mxCell id="22" value="&lt;span style=&quot;color: rgb(0 , 0 , 0) ; font-family: &amp;#34;comic sans ms&amp;#34; ; font-size: 15px ; font-style: normal ; font-weight: 400 ; letter-spacing: normal ; text-align: center ; text-indent: 0px ; text-transform: none ; word-spacing: 0px ; background-color: rgb(248 , 249 , 250) ; display: inline ; float: none&quot;&gt;Omnibridge&lt;/span&gt;&lt;font style=&quot;color: rgb(0 , 0 , 0) ; font-family: &amp;#34;comic sans ms&amp;#34; ; font-style: normal ; font-weight: 400 ; letter-spacing: normal ; text-align: center ; text-indent: 0px ; text-transform: none ; word-spacing: 0px ; background-color: rgb(248 , 249 , 250) ; font-size: 10px&quot;&gt;&lt;br&gt;&lt;font style=&quot;font-size: 10px&quot;&gt;(Native Token Bridge)&lt;/font&gt;&lt;/font&gt;" style="rounded=0;whiteSpace=wrap;html=1;fontFamily=Comic Sans MS;" parent="1" vertex="1">
          <mxGeometry x="587" y="847.91" width="171" height="53.09" as="geometry" />
        </mxCell>
        <mxCell id="140" value="Mints" style="endArrow=classic;dashed=1;html=1;strokeWidth=2;entryX=0.5;entryY=1;entryDx=0;entryDy=0;exitX=0.25;exitY=0;exitDx=0;exitDy=0;endFill=1;fontFamily=Comic Sans MS;labelBackgroundColor=none;rounded=0;curved=1;" parent="1" source="22" target="136" edge="1">
          <mxGeometry x="0.1431" y="-21" width="50" height="50" relative="1" as="geometry">
            <mxPoint x="202.50000000000023" y="800" as="sourcePoint" />
            <mxPoint x="185.75" y="853" as="targetPoint" />
            <mxPoint as="offset" />
          </mxGeometry>
        </mxCell>
        <mxCell id="141" value="&lt;font color=&quot;#000000&quot;&gt;Mints&lt;/font&gt;" style="endArrow=classic;dashed=1;html=1;strokeWidth=2;entryX=0.5;entryY=1;entryDx=0;entryDy=0;exitX=0.75;exitY=0;exitDx=0;exitDy=0;endFill=1;fontFamily=Comic Sans MS;labelBackgroundColor=none;rounded=0;curved=1;fontColor=#FFFFFF;strokeColor=#000000;" parent="1" source="22" target="137" edge="1">
          <mxGeometry x="0.432" y="-20" width="50" height="50" relative="1" as="geometry">
            <mxPoint x="639.75" y="857.9099999999999" as="sourcePoint" />
            <mxPoint x="598" y="800" as="targetPoint" />
            <mxPoint as="offset" />
          </mxGeometry>
        </mxCell>
        <mxCell id="142" value="" style="endArrow=classic;html=1;exitX=0.75;exitY=0;exitDx=0;exitDy=0;entryX=0.5;entryY=1;entryDx=0;entryDy=0;strokeWidth=2;fontFamily=Comic Sans MS;labelBackgroundColor=none;rounded=0;curved=1;dashed=1;" parent="1" source="102" target="22" edge="1">
          <mxGeometry x="-0.0785" y="46" width="50" height="50" relative="1" as="geometry">
            <mxPoint x="441.9047619047619" y="1070.8809523809525" as="sourcePoint" />
            <mxPoint x="573.75" y="993" as="targetPoint" />
            <mxPoint x="-1" as="offset" />
          </mxGeometry>
        </mxCell>
        <mxCell id="93" value="xDai Bridge" style="text;html=1;strokeColor=none;fillColor=none;align=center;verticalAlign=middle;whiteSpace=wrap;rounded=0;fontFamily=Comic Sans MS;fontSize=15;fontColor=#FFFFFF;" parent="1" vertex="1">
          <mxGeometry x="329.5882352941176" y="414" width="158.8235294117647" height="30" as="geometry" />
        </mxCell>
        <mxCell id="145" value="&lt;span style=&quot;font-size: 15px&quot;&gt;3rd-Party Bridges&lt;br&gt;&lt;/span&gt;" style="rounded=0;whiteSpace=wrap;html=1;dashed=1;dashPattern=1 1;fontFamily=Comic Sans MS;fontSize=10;strokeWidth=2;verticalAlign=top;strokeColor=#999999;" parent="1" vertex="1">
          <mxGeometry x="250" y="614" width="305" height="88" as="geometry" />
        </mxCell>
        <mxCell id="147" value="" style="endArrow=classic;dashed=1;html=1;strokeWidth=1;entryX=0.5;entryY=0;entryDx=0;entryDy=0;exitX=1;exitY=1;exitDx=0;exitDy=0;endFill=1;fontFamily=Comic Sans MS;labelBackgroundColor=none;rounded=0;curved=1;strokeColor=#999999;" parent="1" source="145" target="136" edge="1">
          <mxGeometry x="-0.0933" y="46" width="50" height="50" relative="1" as="geometry">
            <mxPoint x="642" y="547" as="sourcePoint" />
            <mxPoint x="729.5" y="580" as="targetPoint" />
            <mxPoint as="offset" />
          </mxGeometry>
        </mxCell>
        <mxCell id="148" value="" style="endArrow=classic;dashed=1;html=1;strokeWidth=1;entryX=0.25;entryY=0;entryDx=0;entryDy=0;exitX=1;exitY=0.75;exitDx=0;exitDy=0;endFill=1;fontFamily=Comic Sans MS;labelBackgroundColor=none;rounded=0;curved=1;strokeColor=#999999;" parent="1" source="145" target="137" edge="1">
          <mxGeometry x="-0.0933" y="46" width="50" height="50" relative="1" as="geometry">
            <mxPoint x="552.5" y="712" as="sourcePoint" />
            <mxPoint x="598" y="761" as="targetPoint" />
            <mxPoint as="offset" />
          </mxGeometry>
        </mxCell>
        <mxCell id="149" value="" style="endArrow=classic;dashed=1;html=1;strokeWidth=1;entryX=0.5;entryY=0;entryDx=0;entryDy=0;exitX=0;exitY=1;exitDx=0;exitDy=0;endFill=1;fontFamily=Comic Sans MS;labelBackgroundColor=none;rounded=0;curved=1;strokeColor=#999999;" parent="1" source="145" target="132" edge="1">
          <mxGeometry x="-0.0933" y="46" width="50" height="50" relative="1" as="geometry">
            <mxPoint x="552.5" y="712" as="sourcePoint" />
            <mxPoint x="598" y="744" as="targetPoint" />
            <mxPoint as="offset" />
          </mxGeometry>
        </mxCell>
        <mxCell id="150" value="" style="endArrow=classic;dashed=1;html=1;strokeWidth=1;entryX=0.426;entryY=0.053;entryDx=0;entryDy=0;exitX=0;exitY=0.75;exitDx=0;exitDy=0;endFill=1;fontFamily=Comic Sans MS;labelBackgroundColor=none;rounded=0;curved=1;entryPerimeter=0;strokeColor=#999999;" parent="1" source="145" target="131" edge="1">
          <mxGeometry x="-0.0933" y="46" width="50" height="50" relative="1" as="geometry">
            <mxPoint x="275.5" y="693.5" as="sourcePoint" />
            <mxPoint x="228.5" y="748" as="targetPoint" />
            <mxPoint as="offset" />
          </mxGeometry>
        </mxCell>
        <mxCell id="151" value="" style="endArrow=classic;dashed=1;html=1;strokeWidth=1;entryX=0.25;entryY=1;entryDx=0;entryDy=0;exitX=1;exitY=0.25;exitDx=0;exitDy=0;endFill=1;fontFamily=Comic Sans MS;labelBackgroundColor=none;rounded=0;curved=1;strokeColor=#999999;" parent="1" source="145" target="125" edge="1">
          <mxGeometry x="-0.0933" y="46" width="50" height="50" relative="1" as="geometry">
            <mxPoint x="552.5" y="675" as="sourcePoint" />
            <mxPoint x="702.5" y="745" as="targetPoint" />
            <mxPoint as="offset" />
          </mxGeometry>
        </mxCell>
        <mxCell id="152" value="" style="endArrow=classic;dashed=1;html=1;strokeWidth=1;entryX=0.75;entryY=1;entryDx=0;entryDy=0;exitX=0;exitY=0.25;exitDx=0;exitDy=0;endFill=1;fontFamily=Comic Sans MS;labelBackgroundColor=none;rounded=0;curved=1;strokeColor=#999999;" parent="1" source="145" target="126" edge="1">
          <mxGeometry x="-0.0933" y="46" width="50" height="50" relative="1" as="geometry">
            <mxPoint x="275.5" y="693.5" as="sourcePoint" />
            <mxPoint x="113.0440000000001" y="750.0139999999999" as="targetPoint" />
            <mxPoint as="offset" />
          </mxGeometry>
        </mxCell>
        <mxCell id="153" value="" style="shape=image;verticalLabelPosition=bottom;labelBackgroundColor=#ffffff;verticalAlign=top;aspect=fixed;imageAspect=0;image=https://hop.exchange/static/media/hop-logo.5138ac11.svg;" parent="1" vertex="1">
          <mxGeometry x="268" y="669" width="53.1" height="20" as="geometry" />
        </mxCell>
        <mxCell id="159" value="" style="shape=image;verticalLabelPosition=bottom;labelBackgroundColor=#ffffff;verticalAlign=top;aspect=fixed;imageAspect=0;image=data:image/png,iVBORw0KGgoAAAANSUhEUgAAAggAAABxCAYAAACwTltDAAAAAXNSR0IArs4c6QAAIABJREFUeF7sXQeYFFXWPRW6exIwIEFyNMcfs2JeRcCcIypmUUlmkRxEoihmXXPWNac1J1RUFLOIiuQ0MLlDhf8791XN9AzTYYYZF3er/t9lYLqr6t2Xzrv33HM113VdBFdggcACgQUCCwQWCCwQWCDJAloAEILxEFggsEBggcACgQUCC9S2QAAQgjERWCCwQGCBwAKBBQILbGSBACAEgyKwQGCBwAKBBQILBBYIAEIwBgILBBYILBBYILBAYIHMFgg8CJltFHwisEBggcACgQUCC/zPWSAACP9zXR40OLBAYIHAAoEFAgtktkAAEDLbKPhEYIHAAoEFAgsEFvifs8BfBhB8sQXNM3Gy+IIGF+rvGjT+oEH+rsFRP0CX37qa/Cq4AgsEFggsEFggsEBggSa2QBMCBKdqY+dPyQDBdSy40KFpOlyCAM2By93f1WG4AhNg6w40NwoDJmCH4RiArbsw5bfBFVggsEBggcACgQUCCzSlBZoQIFS/dm2pRtdxoNm2+oBhIKHpIFTQLf6bBugWNM2Go+XChSb+Ax024PB3euBGaMoREdw7sEBggcACgQUCC3A3bnolRcIDt8qF4GgaKgBE4EC3oii1NKyJmyiLERc4MEIamudoaB0GcvQQHMOFq2kwXHoUNGgECMEVWCCwQGCBwAKBBQILNKkFmgwgMKzAUIDiEfBvxAgaNE2D5bqIuhp+Xe/i6yUJfLsygT/XJJCIumieZ2OrtmHs2jYHu3QMoUMrG7qmwYYBaFoQYmjS4RDcPLBAYIHAAoEFAgsoCzQJQKDPwGcgaAQHriPgwHE1uLqGuOPg4z+L8eIvJpauMQHXhMvogm3AtRKA7SLXsbFzF+CwnXXs2DkMU3PhuDrChhFwEILRG1ggsEBggcACgQWa2AJ/CUAQwOAAlqYhDuC9xXG8PG8tVkULoWkRuLYF13ah2RF+CK7jsRasBLoWluPUAyLYrVsOTAcwTKOJTRLcPrBAYIHAAoEFAgsEFmgygKDSFOk3cMGC0pZLcKDht3XlmPNZHCvXR6AjR6IPrm3DtTVo9CDYgKv+R5ESY3Hs0DaK4/fLxa49chAykhMlVT6kK7mRKvuh8S91b7bEv6p+kmd7rhjvU7X/pn7NNM7k79dO+mz8tw7uGFggsEBggcACgQU2xQJNAhC4ITpgWEGHwZ+410PHBhd44NMifPpHGI6TC9fRweQEFV7wqAq2qzwIjFHYmngNzHgFerRL4OiDC9G7m4YQkxk0S9IiNT5B57Ns6E3CULDhIg4Hkaq0TW71use9tLykCv6dTAk2xJX0TbNKy0EXa0iehvSVjoQ0VtPCHlNjU7ow+G5ggcACgQUCC/z3WMDbXLzdIl27PNmgWh+pZgBuqk2aFCBwUzRgwXWZpKjh5w02bvugGKtKmwnvgACA6MG1FBggMFDgQJO/awIQXLiJGHI0C11ax3DywfnYvlcOTNeFoTnQdNIg1RZsUFuh0b0ICsG4blg8FQQLinwZhuZo4ujgJf4B8iTo1GCzNFF6gO4K+0JggSPAgeDC8ydoTeHx2NQhEXw/sEBggcACgQU2dwuk9kNv9gCBDgCljmi4FhxoiGsGPvqjDI9+BRRX5KnEBtl7CQYUKCAPQUCCDWi2Dt3SoNsOQuypRBxhN4GebW0c1TcPO/QII6w54klwYcB2TTD60Ohbrs+4FABgwdVigGbAJUDgP9ELosXl38VD4IahSciDXoIQNJdeAu/S+a5EEIaERgQfNPoLb+7DOni/wAKBBQILBBbYVAv8rQECT9Y8ceseQIjBxLuLNuDJ+SGUVOYoQEBvgaW8BfKzAAZHwgv0Hui2DoPgIeHA1OhRcKHbcWzV0cIxh4WxQ48IQoYNjUqMEl5oAo0E8fZwN08oJgE9CWRWaPQqWHATGpyYBsdi2EOHEdagMwZiMGPDEY+CCoXwn+Jw3QQ0hOBqTfS+mzrqgu8HFggsEFggsMBfbgHHcZCwLPDPbC/dMBA2TZEPqL42dw+Cp4uUDBDiroHPl1bggc9drC8j/wAAaQT8U0IKPhfBpfKyeBUMW4PhKE+CEBm4MdsWIolKbN/ZwpGH56FXdxORsA7XrYSh51TxBLI1cFafI8jRKO8UBpwceTe7wkHR7xZWfBbF758AGxZraNsujA67J9BmzxBabmMi3CoB17RhazmwLRd5pgGN8RSNEIO6DszICFwIWfVB8KHAAoEFAgv8F1qAgMB1XSxe/CdeefU1/PnnElBQUO0NtXWIkwzgOthlpx1x5ID+aNGiBQzDz/D7mwAEFYdXjSdPYEmZixlvbcCS9QWAQ+0DhhZIVGRYQYUaNBvQJcSggILuaDBsXaVBevmSpu0gnIhh2+42+vfNQ69eIRi6jZDeRBuu68Aml4IsB1uHXezgjw/K8c69pYj/0Bw5FUCeZQIVOhIhC077EvTsa2LrY3Kxxc4hoBAgmTFHD0NnO4XlGGCD/8K5HjQpsEBggcAC9bIAs/ZYi2ju3E8x8sbR+PLrr1VtIjk7pgYIDKkP6NcPN02eiI4dO0KvUhn+WwAEFzbDAgIQHGiODYYZ7vu8DO//FIaVCFcREhVJUakrcQPVLYIDfocAgaBBg+a4MCwDhnxOgQfDimHbnhb6HxFGr14R5ISaKsSgiIcMMbjlLn55vQyf3l4K+5ct4FaaCJMvYWsIW0zpjMNh6MFMoGBnG71ODaP7MfkIdbRFRlq3GV5wJPxAL0LjkyrrNTaDDwcWCCwQWCCwwH/MAuTdKSHBTz6ZixtHj8WX87+Wt1HKw6lejAdmF0cfeSQmTRyPDh3a/908CH4JZ+77zGTgfyH8skHD7HdiWLWeqon0FJjiRRBvgoQVlAeBykr8mcBAPAqeJ8GkkBKzABxdCj6F7Er06BpD/wEtscMO3G5JGiRngBtwIxzTRY+B9SBU5cl138Tx7s2lKPqkAM0qGDoAHEtlLGgENraLEDkHDpAw4sjpUomuJzvY/qICRDpp0DWmP9piE10nD0GBBGUtFUZhzYkg8vAfm7HBgwMLBBYILPCXWYAHaC74H8/9FDeOGo0v538jz6bXXZUqqNuLQOxw9FEDMHniBHTq2MEDE8lhiU0PXzdZmqOUcWb4QLbVONUB4CCMqKPj5nfi+G6RJdLKDDVoXrhBsx0BA7ofaqCXoMqjoEEXD4PKHOCJ3aDh4jEYiKNTJwfHHx/G1tvl0e0gBAeSBjWNUs6b4s6nV0CFQpy4i/kPFePrORqcNQUIkxuRUOmYfKSRAAwCGm+v15j1YFRCa1eKTifp2PXKttC3ZJojwQspCDp0l5kPJD0S1HgDgUWpghTIv2yCBg8KLBBYILDAf9IC3GM++fRzjCRA+Gp+FUBgiD7dRf7BlEkT0blTh6QCB5u45SU9sMkAAs/ITOcjAiIxz3ZtlCKMD36I419f2Sgqo+eApD0TrsXTtwNdykDL4V9xERwXIYueArrmfU6CC03+TZffm0RfVgK6m0CX9jEMOCEf2+4ShqZTJ8HzIMjG27CcQtmyxWOhoWKVjY9nlWLR42GYMSX9rMV0CY2Q/WAk6O1QAIH7u6m7SJhl0M0YIoU2Wh0Txf+N6QS9FZMkQ6LhIP3vA0TBCnQ3kaLQBOGS/+QMCJ4dWCCwQGCBwAJ1WuB/CiDQXU7hIu50lEpiqkKp6+Ltn6J45cso1pTkAqzBkPBUhRL0DDCkoHgHUtbZ4yMYFk/lBAge90C8C/QgqBRIntgJJqhMgGgMnbtHccQJYeywaz50kWVOKGSlUU2h/psuN2ubQMTRsObnCnxycwxrXysQz4YrHgOCHMWbEHDANmguDF2DTuJkiKGGUoTCFkIFCeQNiGKPG7sh1MaEZngS0Y4XVuDQId7QqAoZ1JwI1pLAAoEFAgv8L1jgfwwg2HDcOAw3BMcxUKoBb/8cx6tfAmsrqJwYAizD0z5Q+gZGwvbc8+pUrbgHOjRLgynZDv6/JQMEBRx8rgJlnV07ivYdYzjm1Dxss2tYfulKuCHspRXWb7hJxqVjI+ToWPV9BT6dHMP6t5qLl4AAx4yTb0BuAd+L3hJGjgDdcGCQiBiyADMBhKLQnQRyCzXk9U1gt5FdYbTRYBsJ2I6DkBaGSXVJDyQEHIT69VPw6cACgQUCC/xdLfA/BRC4mzsOhQ00lLs63v8tgWc/q8S68hzoiMCNK9VEyUagwBA3eQEEngYCfxaegdJCEO8BT+fiSVDeBQIHw+coSFjChoEoEM+VcEP7LuU4dmAeeuwQVo4Do2Fxfany4DoIOQaKF8cxd2ollj2dg5AVooAiTL4fSYV8dyFG2gIOoFvQDQtayIbBbA4zBuTEgUQMboso2h9dgJ2HdoHWGrDNOEzdhOmEVLpEI3Ar/64TJXjvwAKBBQIL/K9Z4H8LIFAg0XaxznEx97cYXv7CwepSU1U4ovdAahWpuL5yy/vaB17tAqnDoDwI9B4oYqLvOeDvGIZQWQ7ciwVkCC8xgZCmNm4gis49Y+h7igIJZo6uiAL1vFSwhPwIE3Yp8NnsDfjxLh1mcT4iQpQEEFehEs0lOLChmTY0ggODG78GhOlFsGC4DpxmFXCcKHILTLQ4RsOO5/ZAuIMJhKiywHCMBkdn5YqmqCtRz8YHHw8sEFggsEBggSa3wH8fQHCZ+ke7qSQ9la2gJIWZ17k+7uCD3xN44YsKrCsPQ3fzRC3IcSsBhg5sowogECiI1oEoJzLUwAM4iYskIiqyosT4uQnzuwIW6F0gB6EaPJgW0yUTFDJm4F8KK3XbLop/nJSL7jtHYIZVCiTTDCl1rLz56Usvy2dFqCEiXo8lr8fw+c1xVHybi9wo26BIk0zLZJhB1wgQYkJANE0XCEfhhhPCSaBXQdPjMCMuHD0Ku1UUbY9ohm1O74q8rmFownrUYUkhKpX+6NvWS4BUHoZNz15p8gG/OT1A0mL/Rlkhf7f33bivyT/y66A3fLBK9hBXGL/vkrO9Gn7b//jQ/Lv1b+33/bu9/3+8wzO+ADPlUJXF8NWX8z3dHS/NMeX3XRw5YECtLAa1J1ftFxmfnf4DDc9i8ACCiDlISiOLMpncJ1HmuHh7URSvflmJdRUFUrRICjJRw4CyypYlqY0ME0hlQ9v2xJCoVJhAiKTAhKn4hdQJoCaCDxwkNVJlOYgHwfcueCEJlf2g0iM1x4LmlqP7tjoOoGDRzmEYEQc2ayLoubKImVJKimkHKdwLonKVgKvlQPQU17hY8FA5Fj7gwvi1AEacoQuGIWyETB2GHodmKllm3XSghaPQDFsIixJyMOlZcODyd6YDt6ASbfrmo+cZnZHTTYdmhuA6YWiGUnFgSqRINPkLotR1+G8HCWon4EIkZTA0pX3hbxb+z9XKYf5nkzaUpHRgSpkaorLpXX/p5rLxrua/v9/G5E1QtVkBmmRQk7wo1wA7aZRYlcE2cYWo8+vpdmqSc7zUHMki8i/1M/vCb1tyW2vbQtRXvc9KP3vjoMbreG1rWBZzlmgjnX1r2ba2hn4qUKrapVLAVd97hdtq2aopeq7mPasb5/CgkwSik8eb/3PyuK2eS8oIyaZQxepq9nv92+LrwjTkPnWlBjYsi62mkmGTTCalc0CA8NlnSknxq6/hVkktp05zpFDSUQP6Y/LkSejUqYNXNTjZbpuuLNxggKBeW01N+V87Jht3sRvCv3+twGvzo1hfFgHcfCUbaVH3gGJIJiCCQrooQYkmgB0XfoFmh6BZJgzLQdjjJDiiwqjqMQhPQQSSVEhCyTArsKBUFz2gIRkODF/YUiwKThRdtndx4CkRdN/DhBumr4OVFn1RJXoS6u58chD4n2zL7EfbRWylgx8fL8OP92nIWVQA24rDNSLgHpSjR2GQb8DKjaEENNOFpjsSetAFHCTkZzAMYVInwYLWrBKtDy5El7N6ItwtFxFuEAY9CP4aogBB1aGsaVb9+s/hJv6Gv4FwBXUIIvVqn4psMknPV3PMK6MtxbQUdBUTEiBQpzy9s6iJW6NAjH/5m4m/KPsbBhdqtWl4INBLmfU3TLbjPw8Q0pnKAwied1F9shooWJbXj95mRDvoKbw78rsq+VhVDK3G1UTrdY1n1AMg2DYPE656Z7YpCbkIXvX+LuFVaRdt5YNB/6kqyfmvvjjuZP547+3/XNvEFrPNvHcX4O7XsqsCOslCPZvSFn+ja8jGXrvTkif+XzFo6tl7Xu2iuZ8SIIzKHiBAeRBumjTRAwi+zfyBt+njqMEAQW2bnhykZA/YKHE0vPZTFK8tiKIkmg/NiYgYkstFgV4D8hZJxGP4gAsheQSODd2xVMaCHZbKjiazBiwHER1IJKIAT9SJHBV6EO+Bx1vwSItKmpnhBoINL6uA6ZFCbFS/060Ettwpjj4DdfTanVUgWYbZZbRDthUvf2CjnhV+JGtFkl/g6iA7gNrZ1goNPz5RgV/nJGAvz5MwQyRsI8QURQ8IECBQLEFnNoNhQQ8nQPEkehIM8SbE4RhMiaQnIYFmB7dAr4HbIrejCV1qXPPlCKS8jmaCh2x8KrDz33glT20lYqkWrmi0EuXlFShaV4QlS5dgw/oNWL1mbfU5RdfRsrAlWrfZAp07d0bLloUoyC9AXm5EhWr+AyGGOvcWr02VFZWojFagpKQUixcvxuo161C0vgiJeFw2DwKB5s2bo1WrVujetQtatWqJ/Lw85OTmwTSrvSFNOQoyOSd842/8Dr4WvECdqqMEf6iojKG0tATritbjjz/+wJrVq1FSUiL9YxoGWhYWSv9169YFzZo3lz5k/xNENFYfNrxdNWdczbHqIh6Lo7yiHMXFJVi2bBmWLluB9euLQODAKy8vD506d0aXLl3Qrm0b5Ofnw6RYWo22Ncwf0pC1IPn9WUSX61ppaTlKSkuxcsUKrFy1SvonGo0K4CH4adGiEM2aFaBXr55o26aNtCkciUjfqXYkexM2rS3Z9lPttm88HpNP1fUDHA19h/r2B9e6TwUgKKEkP3yfrhYD4dkAAoTJE5WSYo2ZVj336nqXbNeNhgMEkU7m8UYJAG5wdTz7XRTvfm+jrDIEjZUPRSuAhZhULQZRTiT3QEiF/DcCBNZYINdAF46CDgshtxQ7bgP06NIM772xAeVlTCukF8FQZMQq7wFBgcp2ULoJ9CAolUX1n+9pUHwFR4ujZc8NOPz8Zui1d664+SmhTGNtdDrxrFp9MpV4B1yX8siyUyO+zsGiJyvx2YxytFjZDLluMexQGK4ZgWFEoYcqxVMgxEUChBDllRMSYiBXwdQtOKE4rJCDkGHAyIkiv08etj5/N4Q6hGALX8IQIqTnT1AUhGx7t76j9D/w+Rrudnm+OoHQ2VRaWooFC77D2++8jUWLFiEajaGiohxFRUWoqKiU3/sXT21crLjoclPNy8tFJBxB+/Zbon+/fuj9f7ugefMWcrqjR8G3YW1X/qaaINnrIePF09Hg88rKyvH99z/gjTfewG+//Y5YLIrKyiiKitbJwszNhZsJ34nvmZOTI+3ZolUr+TMSCaNt23bo3+8I9N6tNwpZwU28KtWu++QTd33bIuVmEwmsX78e0Xg8XR25qp4qbFGI5s0Kapz0fe+IWh90aefCRb/hxRdfws+/LERlRTnKyiuwbh3bXYrKykrVZk2TPiQY2mKLLRAOR7DdttvitNNPE5AUDpl1hl+yaSffhbYtLi5FWXlplbB5nd+V1dmV52/ZtrWANX+cJoe6fI2zlStW4oMPP8Jbb72NkpJiGafrN6zHhg3FqKioqOrTcDiMli1byvgsKChA504d0bdvX+yz954ChDhGbNsR0JAypJRNY1N8xgcq4q3yJkA8Eceq1Wvwxhv/xkcffyTvzv4gaCsuLkZZWZmMCf9i/0QiEbRp00aAAn9moaBDDj4Yu/XujZaF1VUFSbuqzVfIFuTFvHFYSXBSz4ue6Y4dOsI0OV58L1T9PRI8w3Lsrl67zquX0DRwwZfa//LL+ZgxY5asEVUh5bRtd3HIIYfg6quuRPv27aokmf3gVaq35ehmZh3nGNeYdGtggwECc/cZm9ddG8UI4/mfEnjrWwsV0TxZ5B3bEnDAks6iFkgA4NCbQF0DXxSJngADRkKHQT4CHIRQgZ22i+GwQ/LRrk0E3y9I4KlH1sKOtpG6DQQUqqiTKuxEXp+EJwg0+DyuSQxHJAEEIRIy/TDOrAcbed3X4phrW6PjLhQr8jIQRFSpjktWeBcuQwZaQnwNov7It+WELnKx6IlSfDdlLXLWNYdjGHDCOkyjAqFQVFwe4kEwEzBNG64ZF4EkTh7RSTArYIVjMAwdYbIcCiqR17sQ2w/eD1pLU5I+dJ31HZJqNPwXAQSbxSy8E77Y1HWwZt06PPfc83jhhRewes0arFy5EtHKyjo2rDSGYMaI66JZQQG23HJLbNGqJfbeex+cfdZZ6Ny5I0JJi8embKrJI8bXVJfNiONUJD00rF1XhBeefwHPPfcc1q5di9WrV8vGURMcpW8L35ELPBfkDh06oE2b1th3331x5umnoUe3rrJB8/fchBpy+SEMejNmzJyJbxZ8K561OhcZPz7qOjjv3HNwyskniXdDAWgHNgG7rgv4+fDjj/HQww9j4cJfsXz5cpRLu+t+w9pP48KVm5uLbt26Ys89dscVlw1G165dJdQkp9UsvWh8JwH6rouZs2bjhRdfkPlb/RrVPym+CyOiFrp26Yw5s2ehdevWVS/s24l//rFkKaZOm4EffvgBa9aswapVq1SfCj8r9UnVB5FsW4f2W6Jnjx4YPnwYdt+tt7jvuTYIVPY8C9luqun73YVtWcwsF/5DLB7H3M8+xwMPPoTFfy7B0qVLsI4bITcPQ4cf6so0lvhu3GRoo1YtC/GPQw/FmWedjk7tO8h9aAu1UStuTbZzrbi0FPfe/0+88MKLApqqO8B3SqXerHnYu+7663DYIQfLO6gQVrYAQXk9VOjExXPPv4i777kPJaUlimje6Bd5eco2sVgMK1aslLXBv9IBBa6VLQoL0b5du6p5zzf33zIdnMkLh3DjjSOx3377yaOqS0XXbGCDAYJFOoHjoNJ18fwPFXj7Rw1lFTlw6eLXNTgJS0ILrFUACgDRTS6kQkdlJHiuf8MKg2qJFBHS3WLstI2Dow5rjm4dIiJVHHcsfPWli6cfLIMdbQ7XImnRBwiKpCj6CJbSTJCSBhKC8DQUWBBK3Gcx5FhhaHEdthlF8+3X4/hrt8QWvXSIhlKqcI0fUuVpnq4PCa3wGM9Br5A+SuL44/EoPp1egoKyAhhOGQwzAT3kiOQzAYJuJEQ0STgI/De6BfinGYVukjRpQ8/R4diVyM3TEN05hN0vOxz6FgYc04bJ0AKf55Epm2KoNvrYz+KGrkNRLTVAK6MxmZCTb5qC4pISbNiwQYhq/B3/809AWdwWCcdG2DBgmiEICGFCSSgsG+vJJx6P8wadK94FLliNswCrzdEnVcbiFsqjlXj88adw+x23SyiBpzHVBsZ6s48P1iaM8e+hUAg5OREUNi/AKSediAsuvABtWreRf0++sh0n/gL++++/Y9iw4Xjvo49lE011qVi1i9NPPw3jxtyItlWbKL0QDn78+WdMnzkL7777HkpLy5CwGFarPoln04fcWLhohsMs565jq17dcdllg3HSiSciZNJLmd3lOlwECKAcTJx0E6bPuiWpnG7Ne3A8KL6LjvZbtsO/nnkK2267jeIAeciG4aFx48fj1Tf+jaVLl1cBI2VDgUlp+9fjpFVtOHxm2zatccYZZ2DY0CHICanx7m+ojTU+HcdCPG7h83nzMGv2bZj/9QKs37BBxiT/49ipzY3JaGHhIXDdVZs4QQ+BwmmnnYbLB1+K5gV5NeZXtgDBchy8+PKrmDT5Jvz888+1aZBpyyDTXrvtthteeP455EXC4pHJDiBUcxX4U9GGYlxw4SV45913pQ0EjU1zcQ3yyarUCKoGROkAAvdZavQQYMh4Sfqe8OVSThAX+WET9913L/r169c0HgQOpBIXePnHMry6oBLl8eYwyPSPu7Dj5TD0fLgJr0ojj9pM3Uu4iFgWKGnE8cRwgckSzhY3wBJsvZWLY49oju6teZomiS8Bx81B3Nbx1bwYnnl4DeyKtqLC6KdCSihB+AfkGVD2mGmHDF3QS0HgoJ7DEIZD9x21FRwNllaKDvtV4IQxrWG2cWCIFHNd0VQmOtowmXUh2ZPUZYRwFkwnChch+btepuP3p0qxYOo6NC/KhxOqAMIEA1RV9HgJQkzkvxEwKLBA3EQgZJoWLK0SeoT3t2HmJ2Btn489rugLo6VPvghJpoiPEjc6QVWP76YZx01wV78WOk9gp58xEPO+mi+LM0GDRdIpa1qYiiFSmyUuxktxseQ2v2fHE1XoWIimXNDshBQ3mTNnDvbZZx+EQqkYKPVrMNtC3ggXkiVLl+H0s87GDz/+pHgUHOsmT2aKxV/7UvqbdV/0rNXlqpUy6lLrxEFhYQs89OBD6NOnT437Z72Jeie8JUuWCEB46733UwIEH9AR3O2z99649+7b0blTJ5k9iUQML73yBoaNuFJc1IqUqFedHO00K54a19XnHgkHeZuybbEfIe287tprMfCsgcjLyVEGyxDqJkAQmrGm4Z5778eV11zrPUlZJ/mZ/hijJ6Z5s2a47ZYZ6N+/X1XHfPPNN7jq6qsx/+uvQaJQLBaX0xu/l9y3qiWprS/9SQ6WoTw/POWSW7LffvviiUceRm6ualtjhcD4vDVrVuPuu+/B7bffgfJoDJpBABZHKJyDeILrki5zhuO35kae7iyqSbs5FhgCUj87MqcYgnj+mWewyy471dsbwhBjWWUU119/A5544knE4yJuk0TgTM3u9w8T9917D44/5qj6AQQZS2pEPP7k01J+mV4/MtAdqzrUUr+VIf2nNc0Qe1NcUJYGj6gsQzvdBCZAkO+oeSJFAqsu32tS17NdNMvyPKTbAAAgAElEQVSN4O677kT//v2VVZPIwDXu4ib7OWvfqwqFqFRAIhXHUxsqsl28sbAcb3wbQykJiW5EuUo8Nz9Ji+IfJ69AOAKqZoLUUHArhKNgJ6ge6CLHqcR2XStx9IAC9OhsIlSVU8CFka5ADYm4g68+jeKVx8tQUZwLzYrAsExPWdH2hJOYBaEAg6qN4P0smQ7cTi0ZvKYdRiSegNnMwQ4DLex3YR60sJcpUIcbTLHjFSuZHcahKW8lvkilfGjplXBLQ/jjyWL8dOsaRNYXAHoMbiiGEFMaNW5YLlwzATfMMIMlKZb0JEgaJAEDdRJMlbvpGgkYYRu5vduix1n7w9ySZDuXtA444mIlO6Ga1S95GL4XLfvDaWOO86zupU5Z7FdFZEvYDj786BOcO+g8lJaVpXQ/Z3XzLD+k2OQaxTUxduxoDDp7IPLzclW8km7d5JTIDPdUm7Tao/gTSXhvvvkmBg06vwbglLmb7W6dZTv8vdHf5Dg+xtw4EoPOPQfNmjVLM/H9xdUfKIoIymyj1avXYujQ4XjtzTfTcxCYz6wBPXv2xOOPPYpevXqgorwS9953P8aMG9f4jfVIctyAWrdqifFjx+CE444VXobUPjFqek6STegvcXzlRx57HJcPGaJKwXuLohqLG1/5+XkYMfQyDB8+HNHKKN548y1MnjIFP/+8sGotqEdXZflRF/2O6Is7b78dBfn5nou8YSQ77jM+p+WXhb/gmutG4v3331fvUQ8PlmpsmtdPQ4oiUBgzehTOOuN0CfdVzTGun2L/uieFAC4XmPfFF7jqmmvx7bffyZzl/kOPoAjQpbhks9SAPffYA08+/ihatGhRpSejAFfdC6SsTeSqwcXateswdMSVeO2NN4SkzjXD54Fl2ZGb9cfI0brrzttxdP/+Mn+8QbER1k4fYmAsVWP0nifmBJCIwtZzsTah48M/KvHqggpsqKALKU/CB46dUBsmyzcT2bDeghRbYgZAQngIrm3C5KmCp7+EgXw9im26l6H/P/Kwdec8hISgVW1bH5ULgSqq44sPK/HWC+UoXd0Mhh2GzsFC4iN3To93QOEl5VHwlBqFA0G+IImRCTh2BGFWj9QSaNG7FH2vbY42O3qSzMnCLJk2B1lWGb8gyVIhh/g6G7+/sBp/PFKE0DIuXglYOdRCSCAiSNEBQgkBCobIMTPUQG+Cym4QmWbxNBBNxeHmxtF8967ocNyeMDo2g8HCUOQY8T9Z1/hDrRdtgo2osUa7f9IiYiVp74233sb1I2/E8uUrJL7edG686hYQ7nHxkVKqroMrhw/FZYMHC4OeC1iqeFxtG/huebXgaihaX4wHHnwEEydOrOMUluE00EAD+ydVtkVAvG2JC37MmFFov+WWVd6XmrevAyBItoiGdevWY8SVV+OlV16V00ndV3V6HsmTDz/0IHbZZWfcdfc9mDJlahOxaOlO9U77jo1uXTph1swZOGD/PtLGdK7rZIDw4ksv45zzzvNKrPs8gboBQk4kjDNPOwVjx47BCy+9LKGvpUuWQTdCEjJJcehqYE9Wf83UgCuGDsWwIZcjX7JWsnWR13x0nGFe18X333+Hc8+7AL//sUTCv+nOhJv88nXcgMTGs886E0Muvwxt27auznbIwNMQz5sLjBk3Hvf/8wGUlJYpkrEcIFN7EPz2NcvPw5TJk3DaaacoIjoJvWmeyVe3LHJobDz19DOYPOVmLFm2VPgkws1oCoTfFAbP4p7sk7vunLNpAMHXOuDSwcux4yiKuXj/TwevfhfDhvJcaG6OmmwWhU1Ya4BphizlrOotsIARwQFTGRVACMHkyd9yketWYtselTj6iHz06EhvAjvRVGWQvctfhMU17ADRchfzPozio1dslKyIwGAmYcKQ8IKflOuXhxZ+AlMqZfEDInEgZMUQd3ka5z4dR6RNJfa4RMfOpxdA48ysJ0BIyMLMUIkSc3F1B4l1Nv58bjWWPVUEZxVBVgxGyEWERZyFvmApsiIVFw2mQFJISYEEAgMJQTDDIceC6cag5zoI79Ud7Qbsibz2LaVKZRXo892rKrFCrs3YgSCLEwlQjC2/+tprGDdhEn7/Y3FVGlW2Mcos5kCaj6hFkgsGAYFjWZgwfhwGnXsuCvJzsyZS+UQmeqXImbj/nw/h1tvmSJpbXaGE7JjJ9WuZ8m2p+ck/+dzcSBjHHXusnNzIs9j4Su1BKK+oxLXX3oAnn3oa8VQuVXHBeM/UNMyYMR2rVq3G5MmT054K69eymp/24/ZqaaA308GAfkdg6s1ThOiXDtRVryE6Xnvj3zj9zDNlLVFEQnW/ui6S0vbbe0+cd/75mDZjJr75ZoHyPNBpaCiGfFNc5ECw3265ZRb6HnqIIvtlTbKrbhE5F8ytv/TSwViybBkSDOWaKgxQX15DqnBJChprlVn8kA1JwgPPOguDL7kIbVpvkZH74/cZ+/2Xhb/i0ssux9cLvhXgnYns6IfjOFZ232033HfPXejcWYXA0q3v/tq0dPly3DhqDF56+WVZqwhUuHDX0H9qio7/C+/ZCACB6I2SxBIUEQ7BmoSJfy+K4+0folhfztNxjsgmExzA9go0yWneUGJIknFAnQNHwgzMYmAaIrMWIqjADt0rcEzfQvToTAVFS5Y6nYHGJBdQDYDgTcjKMh1ffRDFhy9aKF+eCyPKmg0eK9lLeRRwIN56xX/gq+TGgEgijkotLKeRXMuCGbKw/UAb+12ZzwrUGQdf7T6UJmoUSKFXhMqQzNaAAgmvrMTify2FvtREnhURz0EiVA7DpPaBC1BQiSmPEmJg+qNSWSRACBsWLIYjWMOB2Q9hB3m9e2LLI/ZEToeWQEi1V5Cx91IKICh8vbldPqrnOzMu/dHHn2DMmLH45tvvYNlq4ZJYbIZjWW3CXn0XOrGQJ07jLzR0WbZq2VIER04+6USVOphFLqmfAku2Pk8c06bPxJ9/LpHNKhuAUINX4O1R6rke2c2PXdSnO70QTssWzXHRhRdi8KUXi4u15sJYN0BwXA3xWAIjR47Cw48+hmg8VvcwSk5D0CApbl988aXoG5C4rGcI0dQWQEruk0zj1u8zbs55ubmYNGECzjj9VETCqUMMfl8whELm/pFHHe3pa4hVUgIEbn7czHr26oVP5n4qqdCiOCgoXzGAMp3Ga3NHMrXP/z3nw+H/OBS3zJohBEY1BDKQLbz38eHO/K+/wRVDh+Pbb7+V8czMGn9+bfRenBMEzF77pF2Spaq8bcpO4qMSD4C/8RNkp4sL+s/kNzt2aC+ZKKefdiqaFeSn5VfUWPcB3Hn3vRg7bjwIYDOuEfQvkAdh6MJZuXL4MFx4wXnK05RmXrPJlbEYnn7mWdw05WYsXbasKsMq3TjJtk83p881CkAg0cuPu5c6wEsLbbz+vYOKaEgdV4kb+BGvHLME6EUpEdASSudAKjayxgL1CTx+QMSKYdutSnBM3xbo1dFEiB4HXsImlB/qtKUitPGhIUTLgK/ei+GDZ6OoWB5B2AmpDApPSInAwAcJRH6c2DkxDWHbRlTjAu4il94NPYHtBlrY96p8GHn+yTLbMzgXciUbbWsWbGobuAx76HDoSVifwB8vLMPKp9YiZ0UEtlmJeF6JhBHC3MYFFDjQpbgTSUIKIPA/Q/5uwwqLbjQipC7mAPm9e6LdYXvC3LJQ0ik5d0MwFEHF95huTiPRS33z9xQCTmoAkE3+8quvIh7PnvjjM4m5AftpfSotrfoE6JO6Mi3cySbyvQk77bQT7rx9Drbp1UPu7y9ENcFC9SItvAPHxYcff4JRo8diwTcL0m4YqTwI8q4eE5nvVb34KlJjVd5bPfqVCzKJgzdefx2OP/44FcuuAl+pAQKn19hxE4RLUF5ZnW5Vj0dv9FHffgSA7DueAsmY9/9eQ4GwHg/icP+/3v+HZ556Elu0ZJw5FZ5RaWScIAu++wFH9B8golvyXlUpcHV/V06Nniii/wnxnzBNmcnTngiSDwp9IJYcfqpv9oa/eXfp3BmjR92I4489ukbqYyoTsYkq/dwVbYOrr71ONDeoYyBEtjS29b1P/IjfFt7Hf3fyBfh321LZDhbT2L1smhppiLWe4ZNv/XDeLjvthLFjRqFPn/0k1Tg1EK+Oi/OWq1avxtmDLsCHH32kZNPTbPTJz2T2S5/99sXM6VPRo0d3TzStbkNwVvy8cCHGT5iEV199LSnVM30oqh5DdrP56CYDBHZPnMQMJ46obuKJH2N4/yegrIJsYAIEll/wtA4kS4EZBDpINRAhI1sxW8Vj4GUdmI4Fwy7F7lsZ6PuPMLp10GC6OgyHeYa8BdODfLS6sS0VuY1xUaYAaYiVOfjm3TjefSyKxAYNWrSZUlKUIk5JAMEDDSFPwVHUDOwEcriR51dip4vi2PuSltBC9Q0xkEgTh8GdW1SkbSG4GF69BFaBtFbbWPHqaix6eiFCJZooKJJzIBoIUp/BAwgioESiIv/ONEill8Dwg6RihPhnAnpER3jHbmh/RB+E2rWAZWoI6SHhJshVn9PmXzRc/UwFPq4iGsODDz+KqVOniVCOIirV7/IXLn9x9k+kVa7FJPZ7NndWJ0wd+QUFuPD8QbjhmquEUV53HrqiqMpG7rpYtnIVbp46XTGtoylO3N5LZAIIvvs3WSyJX21IaIIuYZ6gDt6/j/ARdthh+4wAgXOK/900ZSruuPMulJRVC1FlY8e6PuNvAMkZKH5/8XeKvd0wVz37m8qSTz/9JA7cd6+MAIF9/Otvf+DQww4TESMJz2QECJTtll6Q5vngQPqfadweqTlVGq7fxvoAVgYtuZ1zAz3j9NOEkFlQkK/Ck+k2Ri98R4/cnDvuwi233CKZJCoUlv67vLdkIHjeNWobdOrUCTvuuKMATWYoLF26DF9//TVWrFguAEtk8HnYSjM4/M1a5XQ4CJkGTjnpJBH3oc5EeoBQferhXHv5lVdx3gUXSUZDugyR2s9ss8UWGD5sKM4bNAiRcGpQUhmL46nnnsOYMeOwds3aJL6Cv6g2bJw2dO405ffqARBoem9j9NTs/fkQdx1scIFXvivH6z/HkLDoqiTx0JKUQdZOUOEFfsMropSwhYRocRH1pI91S5eTuyk6ByEcf2guurbjdxMImf4kNZIKFabY5bxULIfZCKyc6JiIl+r48cMEXrqnCO6GLSSzQVV6TColTZ0EUWyUyIcUjMqzy2HEQsjbKYH9rtPQ9YC8KsdFNu5lv/M4SejU91NMLNFKsGDSo+GS4GnD3mBh+b+X4/dHF6JgbY5IMTu5UWiUZaZokoQWFHAgYDD4b1R1EqDAcARrPSTghvgZG05YQ2T7nuh8zMHQWxVAp2y0ZHsogFD/Lbcph6IspWILuiopwHPDqNH4+ONPvNyQdOeamu/lu4rZP0wt8/8kk5256Tw9UWSkISc2yfnXNOzRe1fcOnOabKjJG1nVm/CI7Z3GGNN99l8vYsLEiRJa4JXO9rU3+mRAY+qGkDSVshlEKZInbZ7+WAhM7U7ZFenyiYssP15YkI/LBl+CwYMvFfU+daXmIHAATZ8+C7fOuR0bSoo3eWD4Hh4CAbaPf6eSIMWixO1t20nE1MwudP+FJF5M8TBdxzlnD8StM6akBQh+X65aW4QDDjwIK1euFoCnvCrpxmCtTI8qmABYzITyTsHM/08el+TY8L/q8Eb245ypoFL8VQP22Xsv3DxlMnbYbrsqol2qTlGOKBfzvvwK111/g2zmPN2LVTOEzKQqfTgsc+eKKy7HXnvuKYC59RZboHlBgehQlJWXYd26tSgtKcXyFSsE5C9a9BscarOkWLKTN2uuUDzkkY8wZfJkHHvs0QjX0u2obls1z4WziqEKKjxeevkQPP+v56syUOqyRXLKMD0XbBvJrOPGjMHOO+9YZ5iBT/vt9z9ww9hx4j0Q9d+NXLJNBRBqeksaNumSxlcW60T2WQxOwo1qJsIyumxYFO9xDElmXKlpePKrYnz2m4uolasqFrgECGRLJ1S8KhEWvQNRD6PLXko2c1DGoFs5cC3FOA3ZJejdy8IJhxSia3sKgVDylnGvZONkd/ylMoGKbxCU6LAqXfwwN4F/TS6HUZmPcCLERADRQ+Cu5FLBke4y2y8CpdIe7WYJ7HC6hT6X5sNs2XAN46oWCB9BaUFrDmWlvVCD7sIoc7H6rRVYeN+XiJSFEQrpsKWwE70mCRim5dVwIHGCaTzMH3el4iOzLRiCYKNcw4FjWILoze27ocMpRwG5BWB2qaFRJYH3a5y8/oYN1I2/RQ8C1fWi8QQefOQx4R5w8cx0CTlIwkO25DJT750xYZK3unTuJHwVxoVFN8ErlLN+/QbcMns23n73XSQSFlhcRuKkNdgayYtPzSVpi5atMOSKy3DF5ZdWRV39tCj5lkfwYi8TFEyaMhXPPvucEMBEICdDo9RGpU7OvKhpP2XSZHTssKVSCPQqFyq3rSsiQyT/vf/hhyJyo3PeiPeC45VzK6XeoSoEBGCPPXbH+LGjsddePGWrgjwKnCTHpRRPh9edd96NaTNuwdqidZm6SH7P+8UTNkJhJbQjc40ueEPHVj174sILzsdee+0pp0fa0gyFkEjE5VTLE+7zz7+Ahx56SFJEKX0uZVo4xxnn58lXiVLW8KT4J3Leb9vttsF7/34dub4uQooNkd8pKavAPvv1kfhyplO1glKqn6rsLHaj/R00y8vD6aedjnPOPdtLR1QicaIk6zgCWN9//0PcMusWrFi1Svrd5zAk0zhqG7kqrRpAt65dcePI63Hiccd44yv1OsURE4snxEX+wAMPyCk/HSyR/ibYZe0bzUGfPvti2tSpaN+hPZo1a+61W71d8rimHQlcKWD0zLPP4fY77gIzJlQoxreU+oaEFmpdtN+Afv0xYfwYz4ugbJxOqFAAoePg199+wz8OPQzFFTGxrxSOykAW5Zxt1rwZrhxxJS656ALkhEnUtIVrJGuMZojdXnr5FQy/8mohHNc1j1VNHNUeBbt4+VUwG5od4hUs5Jz0Miz8VSSZgFzXRPQ5UJxrQhaVfdfjiniZF3VPYBct8vNxxx1zRLY9nVic5joJN870O2gwpL4CRUVCKIaOR74qwYcL47DRkr8Flbhcy/McEJmKDgA5ByS3qBRCVWuBJ3aWWjZFWjniVmDXrcpx/KEt0LV1BGFmC2RaSbNYmvxFgt4MAoU/59p4fNpSWCvbI9cyECJRku9m06VvAvEowo4J3Qkj1qIUXfoVod/wLjBbM7MgRbnnLN4j1Uckd8IbvBxcdoWL4i+K8MWtb2OLsgg014IT0eCGKB2VQIihB4P1GTh4GTek0qLSRaBGgqrpIHEfmLBREQZaHr4/2hxwAGwqArpKrY5uv83pshJxSQ37ZdEiXH3N9XjPy8VWlKfUA8HvXxXrNDH1pklS3pQa4iJAxT71p6nnXeKpmyeNRX8sxlFHH43KyhiisRhMkxLE/rPqBgi8Fe139NFH4ebJk9C6VaFKKfXs6QMETiiLJc3ffQ8jrrxKgIKcZr1CWnVPZrWgcEHjKaqwsBC33z4HffbZW2SKkwswJcev+R22Z9Watejfrz9WrlkrC6O0xSPzpmOS8168/3XXXYMLBp2LnEjEA0xqmVOXWqDVcyFiOlNn3II166qLYaUbT74KH1U+VZw6jq169cLVV12FI/r+A5GQiYicTmmjmmOTiz7BIj1K4yfehK+++VZeR7mvVfCfZ4hUAIHvxXvPm/uRSDIrPklNP47vqeGf5ZUxHHjwIfj111/VZua51FO1LxkgwOW81BE2DQwdMgTnnXeuiCnR61P7uQQC7CeORxY7uvSyKyRrR8CZ5/JP9czkecGCXcOGXCGqhGrdTE00Ym/O/fRz3DhqNObPn6/kvtNc0lcyBFycevwxmD17VlVbaityJt/GBwhsCwHenXfdg9m33SabrAokVNu/NkDwxzZd3A/efx/+cejBVRtUOoDge2LIWaIWxfRb5igPUNUGnbqhfgiLdQvGjRmFXXbcQULVCssZcohYtmIFhgwbIfU0/NBi7TsmZzHQg837cr0YMmQIBp1ztghDNeRiRWPea96X8zFh0mQsoOaDB07rAlj+MzjvWMtjzOiR6NiOmTxqfVN9kP6i3Ujy9bN/fDG6jdvsSHcjoTHDgOl6DtYbGp77tRLv/MgqenkiHKPIiHEVd7NC6oQsqYxK+YmERo2pjEJGDEnKouVYyEEUu3dL4IRDmqHTlproKoR1BUg29UqO64mIU8xF2Robj01Yjg3ft0GonKWjo0A0hAI9B3ac6YUaEgXF2GpAHEdc3QFOc0ooQ/QXGvPi1IxJ8MFGiO4qTUOFrQlwKfliDb6+7XW0rIggprtwwq5UgYzIBs93VIqLcsKTapAJ4SuIN4HeCA6oCLMbXJTnhNDp1OOQ170XNDMsbUnH1G3MNmZ7L9+D8Na77+O88y8UQSRemQCCfEbTpDLjnbfdhkMOOUi+owiE1Rt39eamCvLw9xXROMory3HQQQdj1aqkTbWKtZ568aTAyuRJE9B71529uK+3gXoeBN6fMqyzb5uDadOmK2ElXal4pndXKzjEegL3338/dtlpB09uV7mU/avGuPZOTpzIrOkwcODZmDvvC9nIM6WrVZ+ygWOOPhpjRo1Ez+7dkrqtGiD4Czft/fzzL+LGMePw59KlWXWxv1ByM+RmecABBwj4IcASm3in7rr6zP8uN9SPPp6La667Ad9+/x1001AbgNdNtaVjq7+nPC2vvPAvIaP5YybZpZ4MAlj854CD/6Hke7MQC+Jm55+J6RHp1b0bpk+bhn322VuFATwwwnGXvMj6m5JKLVR8lpNOPUNEtJKLJdVl4OR5wfsPOuccjB11A5o1U3VuUp2uKDo285bZmDFjpoDKTODbPzn27v1/eOrRh7HFFq3UBpOhZkIycGf3LFmyDFOnTsXjTz4pwFk8KB5IqAsg+H10/rnn4Ibrr0VhYUs1n9OMNn9e89lLly1H/6OOxeI//6zq73QD1X9fqlOOGTUK5w48UwlsgRwyld3xyutv4IILLxbPSPL8S75vjTRHSd5wsPPOO2PqzTdhrz32yGqu1Pkhr27Mp5/Nw8hRo/HV/K/lY7RhOoDAdz322GMwecJ4dO7YvjpDJYu9lV6jZP5PyloMtmu5BAY20YejI2E5eHdFJZ79Lob1ZfmieOhKPQVHdBCEc8Dyy1LGWYEDugOFPEgvk21K6WPNcpFnVmCnLpU44aAW6NWe7scoXIPuYoYrNv2UmzxQac6EHoVp5wHFOhbPL8WHz65F6ZJW0MoLEHaBUK4Lp/lS9LuoHdrtbsLNMxH3hJmSz5cN7+ma31TK3exmpdSUcFg2OgQt6mL950vx6xOfQyuqhCQqSNojTyjsOCI1qSzllYr20iBFH4FpRi6sHBuGXYGcUAixrbqi/THHQm/RWmo1eHIOjdWMTb6PX0Z25uw5mCE6+GrVzwQQuGDk5+fihuuukxxqxs0kjdNzkdc+KfrkPj+2zdPBvC/m4cSTT5U6CKq2gJxF027kXbt0wcjrr8VJJxwv9q46YavVUzaubxZ8h6HDR+Cr+fO90zw3Ac/VV4fF1Ds7Usp45ozpOKDPfsrdLvLLricHW/3F5M3fj58rF+vvchqlwlwmF3kyQOjSpTNmTJ2KQw8+MCk7wwdJiqHuexBef/0NXH/jaPy+eHFWfa94fgq4nXDC8Zg1a5akHUpNAynjrCpo1uXK9DdSPpt2ZY2A226/A6vXroXBtLQUAMHfyNTmD9w6YxoGDjyrKtaeKuZOb9LxJ52KTz75RIUysvAgcJwyPLLrzjth3NjR2HuvPatKNCevQcmLbO1NlO+z+M+lOPa442VjS3e4rz0vTjvlZAkRtWnd0lMB3HgrpZl+XbQIo0aPw2uvvy6eCwLX9NwDF83y83H/P+/DgX32E0+Mb49030ueZ36/vfnmvzFm7HjJAkgOMyRvcLxncn9v06snnnziMfTo0UPGWToPgg8Q+P1oLI6HHnkMo8eMkeqTmTgWPuDhn/vuvRcmTRiHHXfYoQq4rVy1BhcNvgzvvKNqLvgAJtXgF9CrQU7gw4YNwUUXXiA8jUw8j1T38+c6U3BHjhqDL778KiuAwDnXf0B/TJ080dMC4btXZ6ukA1ziPUqqHJvq3bW4HXVDDk+eGhK6i2/XxfHYgjL8RjKdk6MERVjNUISOiBO4+TOlkP/uZRWIcD7DCia0OCWAeSKuxC5dojh2/2bYqhMLL6mF2QXr3TNnuXGpdLyzBWop0GtA4qT3X0JHfL2KZbKmAbUOwJQv0XKiiKaS3mwMj8ZGA4D2IiOBXALJblBazQ7JWRU21n38O5a99AVyV6l0skTYEe9BmJ4EIST6AEGpLBIwCC+Bq6ZBb0MUYSQQLyhA7qGHoXC3vaHrOQ3JistqI2jwh1wbS5atwPkXXoy5n82ruk1dACF5U+MIOeG4Y3D99deje/du9fKM+AtRaVk5Ro8Zi/sfeNArsuUtAGka06JFc1x71ZW4+KILNvIgcFJy8X373fdx8aWDpTRysu5+ane/K+79K0cMl0JRLIsrrsysjOqFFKBJFb7nX3gJw0ZcJaWShZOQ3pMs8478jXFjRuPcswm08rxTov/w6hADV7558+bhsiEj8NMvLJKT+RKvjqZh//32xT//eZ+QEP0ru/apT7PvF/32B84edB6+/+EH2FKvQP0uU/GZkddchauuurL6uSk8ggQIJ5x8Gj7++OO0m7R/I3/D3GnHHTB61EgcdughWfaZtKjqtE8QWFEZxaxbbsH06TMgNSlSGKf2vDjm6KMwcexodO7coU6A4I/1N996W9Jtf5LiRopfkHKTE8Kgi+OOORqTJ05Ahw7tM3d0HZ/wgSWzQsaNn4BHH38CLNXsj8l0WQpMg3/s0UfQt+/hyitYj8Hy66LfMHTYcHwgRcVUhcpsLo5TZlJKomkAACAASURBVIWoeZAr3338iSdx2ZBhQqROJ36l1iblEWOo6cD998eY0Tdil113lUNbwy8V6vrkUwKE0fjyKx46MnsQOE4G9O+PmydPRKeO7ZPGk6+Rk+6dsjO2lnDirkESnwYsT7h45udyfLRQh2NRBEkV3lA6BySDKFKgcA4IGoQYRo1lggYTZoLZeBbCWiV27GFjQJ8ItuuYqzZfr269d+xpFA5CcofQFMq7Rbck02AUyYmVJFUVRGYU8EzP7GWS22xoqFTKaGBhlOwGWH0GgQDNpD6ijWWI+YfYMgvrP16IFW/Mh7O21NOBsBH2izmxLcI7YJaDlK0UcEAQYZIMGYrB1OIiTBPdamt06HccQi3aNih1sD7tqu9nOUa+/uZbnHjSqVizrqgqhzkVQFCLiost27bB6JHX49RTT82ovLbRO1HL3dt03n3/Aww8ZxBKy8u9OhrpN2Zq8A+9/DIMHXK5pEUlexA4H+i+vee+f2LUmLFeTFk5oWVNTkELY5P26P1/mDB+vJAGRfY1a0PWDAX88utvGDdhgpSQllNixlRRtaidM3Agrr/2arRr11a9a9XgrB9ASG6r3/J2bVrj+eefw7bbbNPgkxTDhEzRu3jwYAFBlDOu6VJPteC5OP/sszBt2tS04jtsc30BAr/DuhaXXHyhcAHyvSJKmUWLfC+VRxoTYGnjnXffwzmDzkN5RTRrgHD0UQMwYQwJfR03Ck/4gDoWj+G++x/A+ImTZXwqeFJzhKlwiVJ+ZaEoSknPnD5NvD7MMGnIJQBB6nJoeOTRx0RgaNmKleINSr9pc512cfHFF4nWA59fH4DAsuEkB48aNQZFxcVeZpEajenc8jzxsqz2bbNnY9tttpZqlseecJKoNKrvpt5Upe6KgHpXsjtGDB2K884bJLoQEtbNfkJvZOqGAoQj+/fHFAKETskAr/H2Ms22HVfTo4jaGj5creGJr6PYUFKgEDvDB5KxwN3X0zngWpWwFSdB2MYkG2jQqY7ouAjbxdihp46TD8hDxw50cSUkvq+B5Vkl0cVbnDbBmnWNZP9dFMfbi4OpckaMfSh+p5JjrtJH8d6G71Wf5TrbicQtSpWfVuQioW0QonhohimQWpmDNfN+xaq3vkJoVTFMkkRDqp61KgvN+IOnjyBkRV+aWQko6UZMPme1aIMWB/ZFwU7/53losn3Lpv8cSWsvv/o6zj73PI99X72Z1l7Ekl2cBx+4P8Z7OfyKOFSPgc86AkKaU275c8+/QFQbfRWDdP3NdK+LLzxfvAgFBQxr1OQgrCsqwvU33Iinnnm2aiHOBBDocr/kogsxdMgVou5WP56IDxCUTgHj6E88+RRuHD0GJaWlWdjFy2bYbTfMue0WbL3VVpsMEHyGtaSRuY6k47300oti75qEp3rMcy/MMWXaNMyafatkNVRnn6QLC7m45PxBuOmmyVWDOV2IoT4eBC5yXbt2wagbR0pxqOpNrFoPo+4ZlPy+nm6G44hs8IknnYI/WSY6Sw8CvRYTxo7GtttstZGUtQ8QmDZ687TpuP+fDwo5UpEh6wIInjcTDrbZeivcMmsm9thjj4zqhKlWCeVBUOstlRuvueZaSbOU+gVptRcUQOC4efzxx0AyZn0AAp9JwbXx4yfixVdeARPWfE9eOoBAi5ATMm70KJxzztl44skncdU11wl3QtVnSXfqVr+jN7zv4Ydh/Lhx6NG9u+LYZKm+ms6ODfEg1AQIvscqNU+lvqu95liW6yCKFQkDj/1sY+5PlEjOE84B9QKocaC4BkrsX7wJLLZED4JLkQyVSmhGDTRzKrFTz1IMOKQdtmurwdF5jk/AlFO9Ciu4kgaoqhA2/uWfOLxYc1Vfq0Fc5XWUR4tjtMoJ2BRvI+CJw5ZeFwIE7yESVyWng//HNKMKGyVfLsLqlz+BsWYDhSKV/LKAASWo5HsRREiJiot06EjdhoRIUCAURu4ue6HwoH7QIvmNb9pNuGMiHsO0GbMwZep0r6SQQuF1chC8uHBOTgTnDzoHI6+/RlziasGvTy+pIlq0//JVq3DN9SPx4osveSl0dUspy91dB5GQgYsvvEDEXBQzufq5dOeylPPZ5wzCfConenZJlZLkL+CdO3bA6JE34MSTTpC21A8gJC9ailQ174svMfLGUfh83rwMrmQV2OP/041M5vjuu/dmlC3pqp8HwT+d+t4SzqJ99toDr77ysmKH15BarkefeWStp595Dlddex02FPtCTf49UnsQLjrvXNx885Qq2V/fC6UaWf0O9fUg8IndunTGjSNvwEnHH5sk5FYdPkgPEKo9CPzy77//gTMHno3vvv8pa4Bw4P59MHHcWOy00/a15kF1aipJlzeMHCPpvWIltTvXeLVkwiVB3ZED+km9jp49e2QBMlNubV51Vg3ritZj2PARePX1N8QTxJRVRdxNcbmOnMQ/eO8ddOzYIcn7lnnMME2RGQ0vvvgyJkyejN8X/yngmd60dFk9fBOGB5g+OmfObRg+fAR++OlHL3afPk3Zz7nq2KEDbrjuWpAbImmW/qlzE9bIhngQ+NwjBygPAtcXxQFQbE+1Hm36pTmJGDMRsaBEw21zK7ChmOzOsCIfSm1hDxSw1gE9CR73QDQGPHEeuphyowns0cPCCYdH0KltmHeoRUNLnuSN8ep1Nd4fjKnuX3Oh3XTzZXOHFAuJmsVV1TKNcgur3voC69/+AjprzFOG2fMWMLwg/4k2AkGDpURmQvTOUBvBgGPEEe6+I1oddiLMlq3ruZlm046Gf4ZpXoMvuwJPPfsvlRHjjYw6AYLH3mrdujWuunKY5C037Ko+4a3fUIyZs2+TQkrURqjSG6jjxoyLRkwN559/vsS0pVRs0kJLgPDDjz/jhJNPwfKVqzywW/cimEzKYjrjhHFjQMa4T5pqSLuUnK6LZcuWiUDTk08/kznW7C0VdOPefeft6N/3cETCyXK19QcItd+9z9574ZWXX/DCFvXw9CTfSJRSgdfffAuXXHYFitavr/ptekKriwsHDcLUqTfVARCST1X1DzHQIc/KkaNuuA4nn3h8Fa8g8wLsexCqbcvxwMJkDDHM//rbrAHCQQfsjwljx2DnnbavleaoWPi80dy5nwkvJR1vpCZAsHHF5ZeJKBLrkGSqb5Bml1cAQVJGgRFXXY3HHn8SFdQ5IRBOhw/oU9aA99/+N3bZeceNQl7p5ofPfWCRsElTbsajjz3uaZFkFoVS+MlF7969sWDBAkXozDKLjUTU/v37YfbM6WjVstCbWZnAYuaZ3jCAAA8gTEDnjh09z3m1t7MxdlnNsW230gHeWW7hvrmlgJvv6Rd4CokEAZ5aIkMOUs6ZXgUpNq7mSzhhoVurMpx7XDP03NKACX2zY9Jn7qK/+BPexBGVak5xy4W9thK/PPgczCVrYZIfwRCD5z2QEtD0HpA7wZ8FIMQQ4rdNnuEqoHXcCs0PORl5HbtuVgCBGQQnn3o6PvpkrmRZ+NAxFUBg27beemthbjOPvmFXNUBgmdjb77xL6j8o9bzUJ3i+E4VUzj/vPIwYMUIAQvLiSYDw0cef4oSTT0Y0rvJUUnpDklLGjuzfD5MmjAX19eU7WS5IdbWdU48CStNnzMCcO+6sWhjr+myyjfnMGVOn4PRTT0FOTijpHTYfgMBN5Y1/v4OLLhm8GQKE4zwTqx5PvwD/RQCBo88B3nrrHVwy+PK04lbJaXPMLBl940icf94gYeNvwnBU2S/e9sQ5duddd4PkYL9eRar5Kx5cx8KD992L4449MkmfIzPA9MMaFBR7+513MWb8eHz/w08Zl4pqErTKqEhZvKqOO/G7HTt2xK23zMQhBzEbyB8D/2GAMGkiOnfyPAhJ4dBGAgiuWxS38PiPxXh7IQl9uYBlwKU0H70HUsqZsXQCBYIDklJESkw8GiQmFroVOKVfGPvvosOkQpVpwtjMxHoyjpy/+gOeB0HUs0TE0oaWsLH8rc9Q9uZniGhE4IqkKEJJwkPgn15mg67BNmNSxImydZoRg9u2G/IOPgn5nbdJW8zkr25qUVER+g84Gj8t/NUjDqbeVH3eHIvwTJ86Bbv93y6b/LoEBdxQN5SUeBs63Yx1Tx8VfdJEXIjSxLVT83jaoAv1zIHnVmVFpAII/mLEk/vZZ56BUSOvR/PmzTYZIHDocGG89777MGnyFGwoSV0zoSYIczHqhhtwyUXnIz8vJ2mMbB4AwWeQv/mWDxA2bGYehM0PIIhGnOPixZdewdBhI1BcqsZ4poshvPHjxmLgmWdIemODAYIXEuQNCAjuuvteTJ02HUVF6zPqdCgxYwejr78eV44YWocEeJpWsHCf/FpHZTSG0WPH4aGHH5FMkUzgm14A1nMg18hP9cukKcInSR2JU07BzGk3CzFxE3mJNRq3SR6EpgQIluW6qxI27vh8A75bnguNKY8MJyQcz0OQzD1guEGqeohbie6jnISNnTqV49xjW6BDc1OqKbp6JTTJJ8yMBDMN5P/e36vhLScRMTVjNw7Wfjwfxc+9h7DLUtBMZ/RDC9WloDXKMlOSNhRDhAWxDA2OWQ63bXfkHnASCrpuv1nZfvny5eh7RH/89ucSUTRU1T/q5iD4AGG//fbDLbOmY6ue3RtlCNQMLvmnu7rP3Om4Dox7Pv3sc7h8yDB1cvdYzXV5Q3wxH57QWOb26iuH1T8bo66TjBdifvqZZzBm3AQsW74ipY1qexCuHjEcV1x2KfLzc5I8I5sXQHiDp+FLLsO6zS7EsHkCBG6QTz75NK67fmTqEt11jJBMsfrsJl51WLdmNCHz+ZUAgUB98IUXYOIEZgT5d8hm36gm7jKJYv7XX+PyocPw/fc/ZCF4nmXLPI0MvxBXy+YF+Pijj9C+/Zb1zELK/LzNFiAkHNddE7Ux7aMy/LaGAIHyyMxe8ACdeBFUuKGqMJMojFiivJgXr8SxB+not3cemhus1UDyHEupNk3qYGZT/10+odxympf7SE0GWBaWv/UxKt6YixCLPlHzwMtgqJJa9nkJROxhSke7knmqGZXAlj2Re+BJKOi83WYFEBYvXoxDDj0Ma4qoGaAIm+kAAk8Affr0wa23zED3bl0apUMbEyA88NDDuPLqa4WEJQ6HFGDHz8ggQ3v4sCEYevngKpGnTKecdI0Wd64DPPPssxg7foIoy6W6kgECAcvZZ5yBcWNHYYtWLTZbD0IAEGpKkKfjIJAzXl5Wifvu+yfGT5wEi9k7WV/VsyLzdp76pt5KluIDqe8s/AnXxpmnnoLb58wWNUV1ZQEQSIjzaxcIb97BpJtuxl13342y8sYpU54cjuCjRgy5HCNvuEEd6ySralOsVtNcmy1AiDuuu7oigcnvlmNZUb6kM0peq9QcUgWVJJxgeSRFr3QyCzsxtbG5FsUp/UM4cJcwqLtIt7hLlr0UDGo8A2Y95v8mHySth9OTZZpVvr4Nt7gci594AVj4u4hNKWEkvw6D8iAISVFSIAHHjFPnEjbFcowotPa9UHDgKchr3zO7SfYX2WrhwoXoc8BBUqxJFRlKk8XgKEU+6qbfOnsmOrZv1wRvmYY55W35qR7KugGPPPo4Rlx9jWhxqYycFBkZHgeBwkFXjRiGyy65qFHawunItYnFZUaPHY9Fv/2eFUDgh8449RRRkmvRQoVPkhdktSDWXyiJ92gMkqIfYggAQvYAgfOpuLhE6iFMuXlaUhGh7IaaUkXgWYQLe3bfqf2pahmvur6fBiAI3Z4A4VTcMWd2PTwI1TVupNiUkvnAot9+w/kXXYxvvvlWFWHaxMsnE/NP1vl4983XUVjYXDI+/ocAgu2uq7Qx4+MYflkWhsbURbqtbVYjVGREP3uBnASmN/Kwy/LJesJAxCnHgEMgHoTCsCoT4WrJNbeT3bnMzWtC3FDt7doom7XGMPU+5wsX1TeBLutx57U16bWqvirVwERIifUpSFK0UPrl91j+8pvIraQHxlNNrOIeKLEkAgSDREUBCJakkLKrYMRhdN0ZhQefArMFRTOyQOFZN2TTPrjw14XYr88BqBRSX7UHoa7BIIqXpiEKYTNnTBM9/8a7lFtSJTOlXrjSrZPUP3/woUcw/OprqmRNswEIVw4fissuvbiBa3DNEcTFj+vfK6++JvK2rHCX6qod+jjztFOlil5LWej8lgYhhlT2q5nFsPmFGJIBwk03T6vSmclmzqiV2QMIafP/09+tSvitalbV9Nel+rafGkzQSoDg69dkRirJAEFlT0iVTE3D3ffch/GTp4jKaGNcBAesLzJr1kycdqJKc1UZpAokNNa1+XoQbNtdH7Nwz2dxzPvNVClT7N+EqWowSLlklbFAwR+DHSE/s7SzDt22sX33Egw8tgU6t7Sh80TsRmBQk0jsp0ozy4+u6BurvavxbKv6SGAkc295b5FvkX9WW0F1GUzRjGdaDj0d1CbwNBkoqdTolwetCQB4+c1W/ERF8mTxKto78ecKrHzlLdi//wFdI8fAK/csYki+90ABhBAs2CEbrq57NRyi0MwQzO0PQIs+x0EL1czdb/R21fOGP/+6EPvvf5Cq9ubl6XqakhsNBG5opmGiX78jMGvmdLRu1bKeT0v38VTx0urvZBoFAhAefhTDr7paCLxpvSHebVu2bIkRw4bg8sGXNHCU1VF1EQogjB7TQIDQorlXmtgfmSr1K/Ag1Bw/mxtA4JpVnT9BLpiG4pJS3H7X3ZgypX4AQYFldfn1BRpxsmW8FYcbucKnnnwS7rz9thopspnPkdUghOBAUi1dFwsWfIdTzhiIlatWbfIGzvsxLMeU6/fefRtdO7ZXAlSCEAgQsl83MhljswUItuO6JYkE/vWdhefncxNTBTtcSwc2AghST0hAg0HWvQgphZCvleLoQwwcuq+J/HACjh2BaVIYyRfs8LwIcmT3SpZmWokzWbTW7+mUc9yEAgQSG/agHndhzYYjygxUg+SUp8Y72ZSe2hgnXUa52nq+kI9ZfJTCN/K9eIIJXFCiSugdK9aj6K25iH7/I3SnEi7rLFR5EDySoqeFQPEklnq2SWA0HUS0Sri6jVjzDsjf+2gUbLMXNKNhsqn1b2Hmb7DnfyFAOOAgxGIJpZ2h0GINrXr/TgIQTA8gzGhsgJD5fTN9glkM9CAMawBAuGLwJZlun+L3GwMEfvDlTQEIgQchq1oMmztA4IpNQSkBCDdPTVmJsIEDr0m/Ji58DTiNAOGOOQ3O4/drUfDPGTNmYPrs26TMu88BamgjfA4CMxaomnjx+ecq0OHtXckehE3dzjZbgODYrhuDhY+W2rjjLRu2nauyFEQx0eMgKCcAjITLcgDQBCCouJXjGDAtoF1+GY7tF8Keu4ZhagmYBgEC3Qieq5sndq+qIQsqNbYLgduNFHeRp8rfpB6DQtvUCeBUp2fBVG41dYwX5Cx93gQAwacLCVypFRKjT8N2bSRWFGH9O/MQ/fZnwKqgkZEDG45XmEnpH/gpjsqrQPBAEoIbiiJHL4aDCKLd9sQWB52EUEE7iPtmM7kCgAD4HoQAIKQflAEHwTvNy/GhestJJinW9iA0FkBIryHYRIsJM+EaASAo0STgp59+wkUXXYwFP/wo4M8/7Tc0FODzDHh/6pe89Py/0Lkz62EoBzB1EKoPNptmo80WILi269puFD8Uu7jnAwd/rs5R4ECKMenCQ6C1dZLqbQUQdFtjqQAJNzjchB0TZtxCx8JyHHl4LvboHYIZUsQtOS6yyJPOzZknIYsySl6RpE0zavK3OaXUAuNXZmTiIL0K3J51mEKkYISD8tA+bqEXIcHSTTA0z+PReK8kz6EJPDFO2AKSFAWdlR3jK9di3btfouKbH4FEDE7YRkiLI89xJYRAVEFRJBpfSS1TLlrVZ2C6qVFgQXPXAeEtEd7vFORuty90LZTkOm7ExjTwVmzvjz//jIMOPkQ8CL5bPp0HgeS5gw8+GLNnzUSnDls28MlN8zWGGB546BFcdc21rGWWPiPDc0cWFhYKSXHwJRfJsl9/JcW6PQgvvfKa5H9nT1J0MZBZDGNGobCwWUBSzILHtrl7EMgnpxDYnDuVByHtldRedbr2y137Xr2mmTMp7+qlO59+ysmb5EGQaK3rYuy48bjn3ntRXhmtUeF0UwBCcibDkMsvw6hRNygPuqdVriBC5oBIJstutgDBsVzX0WJYGzfw8jc2XvgyCtcJQXPDopqowggu6wXJKdgkYCD/gKDB1oWXIG5714UZc9AyZz0GHF6I/Q9hdS4yAbgxc4s0hX7AUz035Ew6ZJkMuvHvCQei0NwcFlYWcCAVHT19AQ0Rr6yzDddR7ie+E0tPNzYj1X83GTaeJ51tj9EeroaQ7cJaW4zVb36A0m9+gmknBBCYGithqqqNUsVR0hz592ovAkMM3GVCIQ0xvRJ2joFw+13R8uDT4Ra0kbIM9dP5r7+l6/MNNv/3xYvxj8MOx9q1RdBYQKlqUtUxsbyKafvvvz9mz5qBHt2oCrn5XAIQHnwYw6+6hgUz5MVSkRQJdOj2ZD2HYUOvwPArLq861dRP2rYmQFAuVQ3PPPccxo6fKLUhUl21hZLOPO00TBg3Gq1aBmmOnqp32sG1uQMEAm5WKb3n/gcwYcIkEf5JORbqAESJeFyE7ail8pdfBNC2LZk1t8+51UtzzFYquHrtYD+yQNTV11yH+fPnN5lIXNs2rfHss89g+223pXitx3HwQ6WbRgrfbAGCa8fdOEvGuhq+WRzF3R9VYGVJBFo8R5V29r0GBAgSWtAEHPBnzdJhJgzoDEno9v+39x1gUlTZ96dCd0+OJBWVYA6oYEQUdVV0ddVVQBFzFnNalQwGBNFddY0/V3dNGBDUVTGtioiKgBIMiDkgeWZgYndX+H/nvqrunmE6zAi7+rfq+2Bgurqq3q0Xzrv33HNFfTHP1VBirseAo00ccGAJDLLumZonjn9aNbtIafs6qkiKKXAgMQOGD+IiYYwYyZHUnleERdnGUbJB1+QjHhEh/2zcoxlAIKXDdRCKO7CqmrDy1XdQv2CRKE86hg3TtBCml8OwEQ07yONC6QMEP5NBJ3mR9tTg6lHEQxrWl3RFt8NPg9mxByBhHcb1flln3ZhWoA1+XPYTDjv8CKxatQY2vVNeOedWsxi8OvX77buvZDHstMP2G/NxfvG1qMDGUsTnXThMKsAJmzlNmqMv5cpiUxRKuuaqy6W4S9sB6YYAgXad8uTTAhBWrlqVM0C45sorcfmlF6GoyC+Axa8GWQzpDPhbAAiN0SgeeXwKRo4cLQqBuQAE8ny23HJLKWVNISDOKUmhol88THK7gG4ibsVxUL/9MXbMqDaSFJNS6nWNTULWffSxx8A0ZH/Xn9tD5H4WN15Dhw7B7bdNhikEcX7XR12/bM791QIEy6p3G/QCFFlATdTF04uimLGgEU59gVRg5D5chRXo6XaZmi9eA8ota7aNPCsGww7DihsqkmDHEInbKC6swZFHlaJvv3xEIuQC0ICGZA5s7IVYXnFip+7C4k7dsaDVG7B+NDBv6hp8O6MWzlo+hQ69yEbnPcPY/4LNoPcAzGIKDW18r0YqQGCkQ1ixVY1Y8dIsrJ27EHmaBVO3EQEXfQtW2AMLXEPNFN2DBEBQFR4JtbRIE6KhfBQfeApCOx4gMRMGT2hf/Vckc00b1Kxfhz8dcxwWLvwkpZ596yRFlym2miaFVCbfOhF77rF77iP4v3AmSYosXX3K6WdAN0yV8pQGIHA3R08BpZZPHToEo0cMRymzB9ossrJhiIHP8eA/HpZCNWSx5+JBYP8bO2okzjvnLBQV5qXwbgKA8FsGCHHbwfP/fkkqKa735MRba08qDyo/Px9jx47BKacMRV5eWDyP/+3D8pQKJeSaACi5ehAUQGCffvuddzFy9FgsWLgQuknvtz9eMrfIV0jMtd0ct106d8b/PXAf9t93HxjidfFEGHxifK4Xa3HerxYgOHbctWHCkNQ/B5+viGPKzAZ8tqwAlpUH3SXHwIbphqHHufDGhHOgW5RVdmBQMMliqMEQr4LwFGwXphVHWVkcfzjCxH4HhBHOp+dAHOBeeoiKsQuqkMwGzrSq+A3QDj6AlxpraVFYrgmnKo7vp1v45L4m1H+tIVKXjwhMsEiJbdiwCmthV6xBj0MKsdMZnVCwSwh6PmNxqrKXJGZqGgxR7OJztwJrUta4VlMZ6Qp2NcQkeUODvrYWK1+cher5i5HHREzDgq67AhJIRHQZVmAJZ82FYxI4NElpZ5ukQ40on8UvmqAZTWgoKEPhrn9A+R5HwA2LRJV0Vqr7/TIs284enuFrDY0NOPHEkzHz3fe8FNTkorqhXZXrsGePHlKs6egjB6gxyEW4TUTS5CRBr+vaqipUV9eoaGHGwvPKK1BaUoKKsjKYJvtrctJybAuz33sfAwefhMZoPJFKla7aoM+k/tPRR+KmG8Ziq65dFU8m1cuTDTFLOMwPzLhSzbG2th6Tb7sd997/f1JaN/uhaGi3TZqEoUNPEv39lsp1QZrjhlb8dXsQmIanUvHefPNtXHjxJVi9tio9WJSiSgkKvuzazzvnbOTnMRycrRNm72EyAyW4DYoUnqnIg19wyb+1+pnLc7iqdo1uYPWaNZg0+XY8/K9HEI1bwnEyWjLCUx/dK9YWiYRx+KGH4aWXX1bjh+FCEZfJPJZCponj/3wcJk+6BcVFhV7z1JyR27O3bsf2AAR+5+ijjsKkCTehq6Rgco7IFWDl9j41l2kM/rmug6irY+anjZg228LqdQWiWyBywFEDpgj7WIp/YOkSblCgwCMtSvhcE7c+CYywa1FRYeHQIwvRZ38TeYVKC0HtoFIDYrINSyF7tG+J40CxbAvuGgNLnlqHhffG4H5XhggBDZ/TcGAK0c+BY8SBvCZYBdWo3N3Etqd3QKcDi6GXK31wjQRNnTLGqgZaq34PpXWk/njZL4Jz/N+5G36/ygAAIABJREFUDizJn9ChrV6PlS/PRvXcRYgYLgyTv1WFl/yKjUpWmQuh51EIcQdqI8S70wNhxKAZMUSLSlGwSz+U7j4ACJd6g5usC1+EKLeX/986q6GhARdfejmmTn9OFf9KUVJsOah89yCZ/xQXuuiC89RiKngtl8nDb1VSq5077PvuewD33ne/kGUzHRwMLOJy6iknS82CslIWV0oOOk4gn3+xFCcMOhE/L1+ZzCNvwTxveY9999kLN4wfi7369Jbx1Kwt2ZolQ0UGn/JCOS5+XPYzxo2/EVOnTU8AmJb39BcD38PBXeMD992LIwccLiSrACBkHwG/NoDgywsnpmxh8Lt4//0PcMXVLPf8VXqA4PVRVZrZxaWXDMOVl12KirLmFUuzWyX9GQn3vlfhMdOYVeeqDUFbvWr8Lr1or73+hhB1v1j6lWyOZBuaCSDwfo6DPx31R9x4w3gMOXmoFJGjF4aAg1dIdwj4AbDVVltiwk034I9HDFDPndi8ZBvIme323gcfYuToMZj/0cdyYmr1zda+KQDh6KMw6eabsMXmrA/BszY6QHBcR4t7D6PDcR1URXW8Nmc93v5Iw7q6Argu5Ze91EZLl/RGwxNKEvEk4Snwp+IEqgwHchai8vvKSgsHDTCwR18dhaV+HXpFVhPFQFYklNRDL/2xnXa2nDjcehffT7WxYGIj7G8L4NhhWb25K2ec3zRJymFKhgNHZ+ZAI9xQFCU9NWw9tAybH1OJvMoQdE+/0zZUaeDWHonP38z5q+ZwdWjM13BhkRexYh3WzvgA9fM/F/IhFRCZqmiI5yBZ0llVayQocGFqMTSFVdgm343BJOeAvIniEkR2PhBFux4A5FfCdnWECSrEhgzhEMz8uo6mpij+duddmDDxVvHMqCnBy3Jp8bT+BEO3/GmnnCxu+ZLSYiVn1QwgtEJwbNbs5JtZvXoNxt9wEx594gkvu1WprrU+6EgADeH8c8/BdddejeKiguaDznWk9sFpZ54jAzn5upunprW8dpcuHTFyxPU4efCJAngSJMVcXlbiJqpNBAiz3/8A148YhUWLP0m7c2kJELp27YqHHnwAe/bewysa1Tx+GngQNuwRvxWAsHTplxg5ZixYCTPd4Xu5/H5x5BGH48ZxY7FNj+7NUvZ+yezBTVpdXT0am1iwz9tVt9rHk70zHApJldO2bAA4BpavWIFJk2+TKo70qikYrRbstDbQgLLiYtz997tw2GF/wJNPPo2r/3KtlG6X/XeW8cgxQu/bMX86CjeMG4vNunRW2jtt8m5u+HTt9SAcecQRmDxxgpR73kQeBMr10FFATwGJfRYYcli1zsUL76/Hhx+baIoWwUIcmmvDsMIwLAO6zfCCaBAJR0HIi/TGC5mRf3zVRZIZLVR2iqP/ESb2PMhEXnEM0FjVj5oE3PeSo8BX236AIIu1baNhaRyvXxJHdGYE+ZYDSzdhu4Z4kAwjCjPSKPF+3aA7ni57S8X79SjCW9nY8rQybD2oE8xSNZxUSmb6CIOvQ87KlgoweJ1TQh4uYtQ5eO1DNM5fAt21EAvbAgxISHRNB5rhAYQWqYyaQfe1LspUutEoIQirqBPyd90fRTv1g1bYAbYMQBchQSUMEalQSC5rzi+ZBNr6XRKnXn7lNZx+1tkbpAZu4JZTOqZyi35995Nd9+6790oAhOTgT7rTWn8etbPi9cnyZ/XFt2e+k5CiTWcjfiMSjuC8c8/GtddchZJiur1SPQiOhCtGjhmHJ6Y8lXjWdCEG/9lCIRPnnnMWrrz8cnSoqEi4dJVoVBbnpNfJVFYOpLzt4088hbE33Iha8g/SgR2vJyibudhn770lM2S7bXrKZBx4ELL35N8CQGArVq1ahYmTb8dD//yXlAKXPtWiX6QCBH7Wo/vW+Pvf/or99ttHyLPtPVJJgexpTz75FObN/1h2+OL6zAAQ+FGf3r2F/JdLmMO/F1VZ6T0YMWo0vv/hB0/+OOvqLuN/8AnHS6rvZptthnXr12PQ4JMwZ95HApozERxlFHnqj1tusTmGX3ctBg0aKGHrtmUlNbc07ykAYc6HGDlqDD76eIHaCIjvOj2fgt/Zb799ce9dd6JH926y2d74HgQ37rqs4Ci2pUYB1f0UOfHrqhhendmIjz/OR4MVEjRA3oHJ8IKQFMk78AAC+0JKOiTbpVv0KjDrgWmQcZR1qMfBR+djz0MNhCK8p9IkkF20iBZ5U2WbXMnK2Pyq3eTg55eieOmiehSuLkM+LBisLSHZAAwxxGGGFUBQGQIM7TvQTQuuHocbthDeshFbn1KJroO2EE6ChACk8FS6ZUgBIh7kIcT4Wl0NJsHBT2ux8j9zEV24FEYsDjusJJRNQVQMLajnYBiBeaS+B0GezaRWgiOgxjbjsEoqULBLf+Tv1A+hoko18LyJ34cyjuc9aP9Qb+8Ukfl7JOst/vQzDDrxZKxYtSqB8n1fQrpvd+zYAddf9xcMPflkhEOG7LxVaSv/SN9S5YpX5360YCFOPf1M/Lx8RU4NzMuLYNgF5+OaK6+QssgtQwz1DY3456OPY/jI0YnrZQMIfJ4+vffAhJtuxD577akmQ1+vy7NI2j7m7Y5sj8D59bffYvTY8SK17PMjWvtu6oTGeO9pp56K4df9BZt1ZgEs9rvmdgw8CBta8bcAEPjeotEYHnzoYdx4y0Q01LOWy4aLZUsPQl7YxE03jMfQISehsJCesvYcSqTIn4NZDv288y8QIq8CCOmvKaFY18WQE/00x9TNTXMPYXMQouGn5Stwww034Zmpz4hHLdNBW/iEYYZTyB/409FHwTQNGT9PPT0Vl1xxpdgwkxdDyfdzreK8bODYPx2N0SNHSCGnXMBN2vHthQ3f+2AORo8d16YQQ/du3fDYIw9j5x139PTxNnaIgapITGeUDVmqw9xGFDEsr9Lx0msxzF9oIO5EhCGqW3EYjg7NCSVDCp4HgQRFgghJ17cMCTuocANldptQWq6j37HA/ocXAxFXogoqjkP3PHdIImvY5p7Kx7fqHHxyTzXm3dyE/NrOMKk5wLoGoSi4xjNFUDNj0KlOKCJEapE2KfIQdmARPGhR5HUGtjhlc3QbsoXSIAjxIXMACDqk3KoZh3gOVr8xD/WLv4YebYQTUgAljyQY04UlugcqK0FVbGR4QYU+yJWgl8GlIBI9HUVliPTaB4U77w8tvxNMn/ErFdg47InSVfRMeWJ+XT4EDmC65S+4+BK8++57ChSmCTGkWpn94vDDD8XoUSOxw/bbyS5HIWp/QkjPvebkRFTP3fZ9DzyIG2++GZbF9+73rfSTSlFRIa6+8gpcetEwmCZt2ZyDYNku3nxnFs4/fxiqqhUpLBtAYFsK8vNx4fnn48Lzz0PHDhUJgKBYKun7vCPxUTU51Tc0YOr06Rg1agyqa9ZlLBqjWqhcriRljR83DqcOPQkFeQQ9qXSMIIsh3YTzawcIPgjmu371tTcwauw4MNwgbz6DB0HF0x0MOPRQ3D55Irbaqr1l1X0groomffn1N7jgwmGY//GCrCEDX5Hw7LPOxK0Tb5G0QTVzpcRpvReTChBicQsvvvIarrzqalStXZv1PqnfJfdg7OgR2KZnT69Gj46Vq1bjrPMuwHvvvZ/Rg5Cs70PyuSNAe8yokRg48ASEw2SKte/w3+H8jxcKQCAJmkcuHgSO63899A8ceshBiERI7t/IAMFxHVcWZk9x0CGDXgR9RLtYUgZX1OqYNmM9Fnxswo3lw3T1ZMKBZC0wnCCbYEVaJJNUPArkKpDQaMjnyr+sI1JWjT8MzEffo/LhRBql/gOoAKhyxrI5XNOu1Ha9gyX/qMOHw6OoaOogpSSsUBPyXQsGH8CMQyPTksCA2/5QHLrZJJ/JAs1/01lADYLOFjY/uRN6DOkBPS+pv93y5rIoKw+u4Cy2MbasGstf/wD1C76GGWOIgK86DiNkiYSyaENIeEMVX/LBgZJUZtiBICIqYRq7pAMKdtsf+b32g15QLhkihIo+OYaeHx/ZqowLPmF6j0f7uvAv+xYH6Pq6etxz//9hwi0TlQxqDgCBbeHO5pKLL8I5Z5+FDuXlwiVJMj/St9N3by5cuAinnXkWfvzxxwSJyZfXTteqjh064Ppr/4KzzjzNi0kmpy1+l/HOL776Gldfcy3enT07J4AgQM51sVmnzkJwOvqoIxGOsD4IW8PU1UwAQXUy8oM++vgjXHTJZfjyy69V6exMpCovJkvoyF0O87f7H9BPvHUET0micAAQfqsAwXdP8/m//vY78Sy9POMV8Z5lAggCEDUXEdPApFtuxsn00oVVf2zLoe7v1ZRxHNxz3wO4486/SxhOHHgZgvr8LvvihAkTcP65ZyvxoTQAIbU9q1avwbDLrsKrr72mNpYZxoDfFtqCxOcxI0fgpMEDJbVTQL0LyX6Y/sJLuPSyy8SLkL4vqHGitmRKifLIAQMwZvRIbL/ddpkSNjKalN4NblyWfPklxowdJ0AvF4DAc1zHwTlnnYkxo4ZLKepNABDIKydAUDsliaFz8SII8GKfcc3FugYXzz23Fh/NKUTcosiK6FtCRxRa3IARD8Nw6SVwoEXzREpYd2xVs4HERsl44B+WMLRhFNTj0KEh7H9CBFqIoMRUE54IKdniTWDZaAof8ckMUv5cpiCyENGGWI2TLHeIVS86eP6Mlei4vitM1ooIx2DyTZoxuPQehNRunRwEPRwHY/2sf0DyIEMPXLSZ6miELcRLGtD9xG3Q/fQecksSFvlTIv2ex8X1dndRqamuw/m5BitmvI/1C5YgHKeHQIUxhPdgWrBN7mwJEFSWREhrAEJRODKQNMlucMiVMONozOuAoj0OROnuB0DLL/MGgqXKaUtmRTKLQga8/x7b4YFpy6TQ1nOFcWzbeGvmLFww7CKsXrM25R2mV4HngkibVFSUY/SoEVLUhbtf9j2fUay+7ZXOpg0FsWmwHKBm3Tocc8yf8fmSJUphThZp9fTp0b6DXXfaUXLEDznkYMloaTZtsV/6FfTuewC3Tr5NZF7lebKExtQ5QOeOnXDH327DwQcdjEjYBznJ0EnzeKYGmzKcGvDV19/g5JOHSt17KcMu3rYMb0Oeh5olNgYPGohRI67H1lsyzVKmlpQJLQAIv2WAwH7HvhW3LNz+1ztxx113gZlDykfgdxBu3JL8HhkGXrGkLp07YfqzU7HttttKH2ZMPbHrFsG25il8XKx9ETDWI+C/eWnufLkDXrBwMahPp+L16T11sklwXfznjdexx+67CVFSPa1Puknp3CLgK+L5mDbteVx4yRWIcTFvZQgk26yq8KhB70oJ+XFjRmPbbXokXrffzh+XLcPlV1yF19+cKT43PotfG8Q/uVlLvImE3sZbJtyMQX8+Dvn5EeHB0ZvLEESuh+9BWL5iJcbfeBOefOpp2UTJEpNhTuE8xOdkmuqTTzyGA/bvK9lJnDfle96GWzXfG+8SbiF4VGPe512km7s0NysrQ00mVEqsXqdh+vRqzJ0bQtwqlg6nORZM14QRUzoI/AP+zmJqoUp75K5XUiLF20BeoA5ba4STvxYDTqvEvseGgYgNh4qOMLxiS4rgomSBuCgr0EBPQ2uzIus1xuJxON8YePvitVj/TikKxFAunBAX/pikv2gCEBh2UAu21DcQoiJTCFVaoWGyjkMU4TwN8fwGbMlww8Dd4OZp4l0hv4ALNDMM6CWJ68wh0GGsqcPP099FzdxPKewsngnJVBDZZIIShg0UQZLggPdyzagKczBEwMGmRREyY2gIF6Bor/4o3+tQaCbFdWgH5d1Rck/tdWjl2m033nnCB3CB777/Xpj3r7/xBixVyMATVWx9EpEJziMFMaxy5umnSrghLxIW8SE1x6nvpi7QHACLPv8Cxx9/Aurr6kRdLZVlnCkLilPqIQcdgEmTJqF7d7K7W9Z9d0QNkrd98+2ZUvb5++9/SLYli9n83Q53a3+55mpJpRTQ6Q1YDvBk3jEzFhxE4zbeensWLr30UqxZs6YZEPFJjpluW1hYiFGjRuDsM05DJORrjGzI5Qg4CBta8dceYkh9YvabD+Z8iOEjRmK+SA4ny96rDUTynfvjRqUXAtv37ImpU59Bhw6VMr580CFguoWwlw8QuAjKdVxXeD7jx9+Ad997XxRGfXd8epIdKwZb2G7bbfHKjBdRUVGRsqhuCBCkio0GCbEdPuAIfPLZF2lhvn9vv80ccxXl5bj+2mvEE5kKwP1QJH9Oe+4FXHLF1WhsomT/hh6Ylr3Dn3MOOKAf/nrrRCEK+vNFts1C8/emNhcNjY2S6XXPvfchbnEjknnTQU8mxdocO46ykmI8+fhj6NOnNyLhUKLei3qPyffO/3Mj7b87/znTkSwzAgTZo7hMn1MVEOOOjTU1Dma8WIdF8/IQj4aFmUfJZQktWF4mg94AIxaBJjwFV0pEK60EZjRoUs/BcetFsCZU1ISDhkTQ+08hhIp4F4YalCQzXRjCzBc3uoIF6RyxwkHgtrEhjp+fcDBnVCPM+rAs/nYoipCUSdagm9QZIECg18Bz6ZM0IABBufeZDkmdBC77obADrTKGTgO3xeZHdYNRSN4CHy8ihZ+IaXlbc00dVj73HtbN+wwhDkwRQCIYiCd4BnSn+EDBICnSjCMaYp6ELtwE9awutHAIxl4Ho6JPX9hmEaDliRdEdKW8De1vBx6oxZvvp6GhUdAxyX1N0aaEaEv6tnjLqZTmdmU3X15aimOPPQZnnXUGSktLVX0NXaFi/pkzZw4efPBBLPr0c0RjMdjkInghGX9QZgIIRYX5OO+cMzF8+HApO91yoNs2PUCcGCGkxwkTJ+LxKU+mZY63nFR8gMBJ1jQMbN6lM4455hhx8ZaVliQKfLGzx6JRzJjxCh557Al89eVXopnPWhCpz5QLQOh/4IGSDdJrl51TPL4BQPgt1mJoqYPQbKEBUF9fj/Hjb8S/Hn0MlGBWycTebrEVRnwCKMBFSXGxpMH26tULLDAWDlEpVAmUNetz3niOx6KoqVmH2e/Oxi0TJ4mHSzGE/LyZTCx8FyFdlwV73NjRMtb4Rx0tAALnf8dB3LbwyGOP4ZprrvXCa63PHKlcATVdOjjsD3/AhAk3S0pnalt88iKvT/Lv8NHj8Mbrb3hekdy8gkzTZKrhkJMGwwwpLkJbPQj+Tv7+Bx+SMCz5RdkOprRzfpP3RK+8oYvOynnnn4e99uzjFZITp76is7uuzLtvv/U2+u2/H3beeecECGmXB0FN6/VeuKFAIUPDwapVFv4zowGL5oUQq89Xa7kAACoqkpxIkqJa0JT3QAoSKpDAS8aBkKRIqpzIvE5N6HtiCLsdHkaknDF2ukeUW0u6Gt0inqulubOruQnpgqLEcv1XGhbdWYtl0x0YMaXLKGJEHveAZECdGQU6QQJBARdr/t/b7ZNAYcZURUrVCJhdLHQ+Zmt0Prw7tLKQlI0OgcRNQFtTj1XT38f6OZ/C1F1YYY2sChh6VDwG5BVI1kKKZLKkMRoxuHpIYhZhrQmaZqOpuAylvfdDUe9DgHAhLI1eFdeDaD4hMbNnOVvH+m9/noyTaliwaDFGjRmLWe++m1QoTN0ypzycz2MWd6ak5Wmw4nGETKpvApGCAlD8xzBM8RIw91rcjt6ux3f9t0THmQAC3Y9UPDzssMPkOi2/m+pwIyD590svSRU5ekeUAE0263pBEcaIxWNG7wo1OkIoKCxESJFgJCTDHQVBAkmKqWClGaO7lTmSg11itgAqK8txxWWX4+yzz0RBfl6K38kjzqhWJrww7Flz587FxZddhSVLuUvL7ei37z546cXnm+Vi5/bN5FlBuWdli5aE19RyzxkBgnjqXMybNx9/ue56LFy0WP5PL6xi36fvnIxlc3wxHbdPnz4458wz0bNnd+Tl5SO/oAARCe0xxbYJdbV1aIpG8dVXX+GfDz2MhQsXKu+tV3bZJ5n747f1fuCiorQUT055XHa97KvNAIK/E1IGkWsvX7EKRx71R3z33Xfp1W0FXohqipfx5KJDRbmkF59//rkCyluCHf/5mqIxTHnqaYwdNy5BAE7Xh1M9MDyn92698MD996Jnzx7Ki9CGzu/Pj7TXu7Pfl/mRqY7ZUidT7as8OY5wEkKGLu8rkl8gcyMnJc4nTDfnnMLR/uLz09C3735JJdg0oYwsHgReO6oiWW5ETX50g/NlLY/jzZcb8cncPDQ1GLLw6/GQKuTEXRZTID31ZMni84s8ed4E4eHFVeaCpcdRsHkj9jk+jF0GmMjvBNheuCHkEbFcqhpmca4rT0pcyJVr5rlYeFsV6t9zkNdYIPwDN+SFEQgQqFIo/ANv4fbKKatFnAiGO38CBuo3uQhrjTA2B8qO3hYdD94GoaIQQkwvWtmAn1+ei8Y5SxAmDyKkiiyZIqXM6zOMobwWEsqglLOAErqwmMmgCVCwjSic0lLk734gSvboDzOvLIH3hSPCdkmYQYVY2p7n0YYeu5FP9SVVOcM0Njbh0cenYNLkyaCAUZsOP47m6RtQkbG1I3UB9V2lqZNCS4Dgn09G8HHHHYtJE24U74QPNFpOKP7/OQ5WrFiJybfdhilTpqChKa60MGSybe0NpU7QKkbotyG1JS2f33/e1lyOrXkQlBvRQl4kgkMP7o8xY8Zg++23S4nx+lZLzVrywzUBQEjtU7+tEIMCCNxV3v7XO3D3ffcLD0fJsGYucpjg5khHdBE2TeH+bNalCzp36YIOHTvJDnX58hX44YcfJHuH4S6C18ThcV5yWVSZYnj6KadgxPDrUO4pOSbHmeI0kGfDOUP6s+1g8u1/xcRJkyXGnmmLlEK1kL3mfvvsg0mTbsFOO+6wQbikZYSdwmOjx4zD2++8o9Y7b45pDeykjkeCq/HjxuLcs88WXpEiked2pD7D8pWrMHzkKDz33AvyLnM5/OfgT6FM+ZLaLeZH/zye8vyzT6N//wNTXl3rT5sZICQIXXwhcSWTCKZIkTgF/PxTHDNfieKTD01EG0JKftkiGSYK2HkJEaUEQCBzhbwEuovjlGomcCAt0kYcDSjqbGOP48LY7Zg8RDoZUuUwQkKevB2yDLiTbJ2D4KkUiZ6BCBw3RrDynQZ88fdVqFvIexnCCVBllC1oJCgmPAgEC4obwJ29LOwinkSAwGwHGzosaOQybBZC58O2Ree+PWA31GHlawtQPW8p8tihmcqoURpZqSWKyJGfysj7yr3jXtYE13uiKskHhVNWjPw99kTxbgcCkQ4SplCHQlluQilRhJdz7ny5dLBNf05yIeKYp7DJxFsnY9q06SBqb9uRVCzMdQC2vH5rHgQOnh49euDWSbfg0EP6Zx048mY4Gds2PpgzBzfccCPmfrTA41Y050T4F2u5M1R7eNWKTLu7jNLyLYzg70YIUFgqe+T110pIhmGWDXc2AUDI1vd+awDBB+PLlv0syor/fvEl6ZPZ4tk+sc8Pgfnp0r5Xx1urPa6NIgb7C3FbEqv959hjj90x8eabRBvEJ0UmQTV3wp6+gkcs/nzJFxgy9FT88NNPrWZopL7H5O4eKC8pkUqql156sScvnt4Hze+R4/CPfzwkAKtm/fqUcImwztJ3F84fPXviqSefQM/u3ZRcvz9/q61Gtq4mn8cdFw/834Ny/9WrV+f0neYnZZ8fiRuen6oAQmsbqNTrZQAIfEEEBESfZNwzQ4FxeUoXq9gUEc7KZRbeerkJi+fosGrzELINwFJpk7L2paRBkqMgmQ9e/QYp9mQTVDCt0gYlGQo7W9jxGAe7n1SASKcYQkZI9BaoeuhKXYR0hZMUWYaEb0EmjgGn1sXq99dh0UNrEf1IQ4SlqUlE9EMKAgY80CALuFdAyd/5ywKvtBPUZ454IsKdwijvszVqG9Yh+snXMPn8QpWwPFJiiuiRpFAqboPiHzC04JdypkCTC7esAvm77YOiXfeGXlAhoRqEyf/wmbDkYvD/zALhu8i5v7Wjg22Kr/gLkXLBc8KiKMgNN96E+fM/gu0JGuVyZ7WoJgVL0n8nA7OhlXHOksxXXHE5Lhp2AfIjoayuNx8gcBzEYlFMn/4cbpwwCT/8tEwW4kxpZh7sS8SHVeAofZEYqYWS5mj5kT8BM6Xr/PPOwUXnn4PiIpYrbU3vPgAI2frcbwsgMLtApbByTC1cuBjXDh+BufPmye8zEedSiX2JcISHAPg9Xo99Ohlb9/fUCkpkC2HIEuntaCn5fc3VV+H4445BAd3gXqXbZgDBC1fwEah7wGqNjzzyGJpiJHWTA5TKoWmxRHo1E3i7vfv0xt13/x09e3SXZzRkok7veeR1aTemG86a/R6d0V4mCAFC+nsqAODi4osvkrTHsFQH9kd67gCB9/v6m29F/nnWrHdV9lUbDsX/8OpDpHlevoeNAhAICMStLXR9PqXHPGfBHZlkVQ7syuUW3nqhAQtnRqA1FMAgt0CqNDoiyaxZrBZpwWBjrZDs5qUkp6gyGlJGmptzpkEyhmJ2qkWvgQb6nBZCpIIVFkMgthBhoXQAQTj+XER5Pq9NF64DJ+pg5dxGfH7Pz4h9HEPYyYNtUByJi78F3tigPkIzgMBwgJftIF6FmAo3CI9BERyNAhONehwRJyoSl9Q2MAlyQvQexBEisPBAAbMnKKssGQy6dy/+X7PhljKVcV8U7rI39KIKFTxwLLgmXzJj1MksXwnZ+IvbbynGkIK82W84WZFAOOOVV3HDTTdL2p7fTp+sQ/CpUnyar+YyGfmerYxFWTKMKm9VJUmWaUms7X766afh2muvQaeOHZulbmdjI/s79traWjz+5FO4ZdJkrFu3LqHu5hMaJf2X/cB7LNUOFq5SMedMudy5AIQE78B1QLBz7rnn4oLzzlFa8Yn5sLV6FsnJS+28/BDDlVjyxdLWjZjSDv/b/fbddyNzEC7Cmupq7/5e70gLlFycd/aZuPXWiV6GdWemAAAbCUlEQVRKm78YtUSCmsTOTxg8RCb/hFs9gyuXEvTdtuqKUSOGY/DAP3uTvt8vM+0K/Xt7y4THSP/uu+9xxlln46MFizOAPiWA5ivLKg7CGOy6687eIpvmvl66Lb8r3APHwZwP5+Kqq65W71LE1Jo7y5tZKOEx9vO4/Ufk9dQzqXS51Pt7/5ZowIbIm6l4/oClG75zx47SN0879RR0qKyQS/pXS15XbQP8uWL27Pdx2VVX4ZtvvhNyopyXASBIqr7rSkXWa666QkC/kpJW4Cndbl7GsmOLV/O++x/AXXffizVV1d7o5GycgcNBT4djgxoqz059Bnv02kWNd25+BJznNmGzdCLDNk89/QxuvOkmLF+5OqEIS7Josqv6vsfW50dl19afl589N/WZX+pByIJ+vHszPOC4NmpWAK8904iP39ARsgsk3ADqFtjUQKCLnwRCR8iMAhAkw4EeBKY/KpEl8TiIa8lCqKwBO5wSQ78zOkArddFoaChwGL9PE2JoOdwkj1QhPqcJqJpXh4/+9gX0JXkIxUOijyDCSBSFIk/A9AiLTLmQcAPjyPwd2YaxFDElfqY+V+pQDFUoRURRP/TABgsuMX2RcRTJeuBnugUjxLgzyYuAU1qG4t59UbzL3jCKyj3dcrGoCOf8tpgGucFc3/3Hn8zVfuW1N3Dd8BFYu3atpPao9BtFSsrUyXO7W5qzOIGy2BhfjOvgzNNOxXXX/gWdOnVUnG8hCrbt4HCgS5IDe9ToMWCBKrbDMD0xJGapZN2B5OgmaHaamvIZH+az2/EYrrryclx44YUyAROg5Hr47yZBUvxCKfJteCiPlq/DQP6RIim+sJFIiv/BhdTLEICgqsmKwzbt/EyAcDom3zopkfbafBHzY9YaGqJRDBp8Mt6Z/Z5abES/JMPOUFPV+0aOHI7BJ/w5hfujRN9yPXzPDgl2Z5x1jgcQWlvoVQVZHhSc4xnMQskJILR4GD8dkaTFUaNHYe78BZ4JVSl7WRATYlqZdse5trKVnuJ5Lvg+WL/gnLPOwMlDhqBDB9U30wNwpS1CWXMKkj07/Tmw/kIifTIDqLNdW8iIO+20I56e8oQqhSyP1hy0bfC0AqqUjsFnny/BVddci/fnfJiwWcZQn7dZJggaePyfcf+993gaKkpzIFeA4G84WCPitttuB7Ma6EERjyQ9kykgWalc5MZTSLZVpbVuBA9Clk7hAwRRU7LhWHE01ITw4sPrsPjtEpgxJu85AH8yBUPCDZzE6mFY5CfQi+CpMBIcWNRQ0MTTYFqahBvqO1Wj9+B8HHBRAewiXekPJOW2svbaBPmDYKEBWLe0HnPGLULJ0hLEwhbsyHqh/BlCFEzu7MlRoBYCUy8kLVKLKWElegToWRCA4Msjx5U8stR24DUUeGBYwdRIWrQRj1iIuDHkay7iBgmYAErKkL/n3ijrtSdAESQ9BFISpBtLmCTXqFVWM/zqTvCFQfhgHPRz5s4VeVYKhbC/052ZXNjaOgBUczNNd351Tk4GV19xBYZdeAHKy6g1oYRJmF3QnoN5yWQJv/Hmm7jk0sulkFJix+NNxe25bqaFiB48fxfGdCcWoRl68hBQwEWIUjnuXKTfeZOuAghXY4kn2dsaQFBlyVRH5d+JLAaenEUwKp0N/Pu/+sYbuHDYxbJ7U9dX3pa0YVyXAOG0DAAhuWtm6t9AAQizRfBKFuKML8URGWJ6EAYN3DgA4cyzzsH8BZ+ksRMXbSU5r8CLhv79D5DKgUkPQm69KCHD7Lr47LPPcPvf7sSz06YJABZgkNjkbbq5hi5ygv7uW2+FUSNH4LA/HIKCgnwhzKpwRTp3v/gQ8MILL0pRsm+//U5K+vn+tky7eV8EbMzoUbjkoguF45ArQBBVSAaLLQt/u+vvuPue+1DFfihjKf28QFNyPiH3oLi4CI/+82Ec0G9/GYMkDmbLSPDfqM9r4v+rqqsxdtyNeOyJKSIJwPlFAarUMELb58f/DkCQDsYQBP9hwnFi0BFDvLYI0+5fh8/eArRoEQzHUBwDAjMRUqJugpfuSBElizoJnkaCZDrEEbLIFzBRQ5GjsrUYdGceNutfJOmAWqhtK6dMOpomKCwEHY3fRPHO1R+g6MdCVXqZgkkSPuDi7oEAgzt9QS0JDQNFYFRkRnobErwC8hgIkhJcBno5VBlnMmjpQbAjTdCNKMIifxpBQ1ERyvbeG8V79oMbKQIDJyFNyVXLITNDbpPAb+0sHyH75BgptKJpWLV6Na644kq8/MqrMoGRiS3iRl6NidbamclElAxPdxCYdt18C9xyy8047JCDweJM8VhMyjzLYtuGRTX1HsIgpx6D42LZsp9w6WVXYtasWfI7I8QCaOk3wZkIUM3jw8k7+lMFuUI9u3fH3XfdISlqfv46J+e2yOe2CSAkqOK6AP2+++2Dl5nm6PffdnRMWbBc4LU3/oMLhg3D2uoadRWquvrAubXrtgEgNA8xKOCQifLLXRo9CAQIAwcenzIsm7vqszU31YOQDSAIvJXuqwTRGGIYP54hhp2yqnU2648OtUGU4A5JqmurqvHs1KmSCcDshtQsID923Vo7vP1KhiZmWKRcF/0P6o87br8NW3bdIrFgciHO5EHgtMAFksJq06Y/J/of/jgQj1mGp6E4Hgu9zZ71DiorylOydzK/s2ZzE4Avv/xKCk8t/uQzSROUlLY0h3g8md7o0mOs45CDD8Jjj/4LIdMUgJBrtczUzROfp7auQUINrNKp5OP9UZ8kOGfre6mfS2/XXLww9amNEWLIdGt2Ysr+0k1rSEhIlAFtF43VOmY8WIXFMwuA+jxZGBlmoA4CdZckrCAqjKzZ4Kks8vseiDBtF2ajDovueD2GrY6txeF3dJB0Qz1Z0SNnu9DQFhdgYlALqFvaiAVj50H/JqIUDcNNKlSQAAGs0UBBGlZ6lLxMFWKQP1y4CAJSvAi8hqenIGJIAhDoRVAS0aYREyBCrqdTUIq8vfZCxb59oYXLk3UURClSdX3atJ2bsJxt8r88MZVRLVOLt5WhVOz06c9j4qRJWLZ8hcSLff6iIGfJ7+eEx75G7VUfUaufvBYrPsYthoYMsT9DCYapFN9CZghUFTzu2GNw8bAL0G3rrWUw+xoLSfZzpthyesslJhghKXqFlZ59Fnfddbe0h1oN4tqlnoi4MqntYIDiS/RiSZtkJ6ImXLWb4U9KcBuetoGKL/NcLv6dOlTitFOG4swzTkdH4U8kY76yVrehI/mT07x583DxZVeKB0GR3prbQzx/Xr65qF06Dg7s1xcv/fu5jQIQXnntdQy75BLR86fnQIAgw07NVqqUdrouLjj3LJG8lcVwA/XL5MLAPjXoxCFS+jtR3jctICSnyUH3bltjxPARGHjC8e0el0LqdhypCXLm2edg/seLMnhaVGVbmcxdDQf2PwDjxo1Br1133uBdZBrHqf3Zf7dU0Vu0aDHuuPNO0SKpra8XZT0V1iMeV++T9uYYEopeAtmqsITfryTI5EV+Uom5fDNFxcXo0rmzVIs8+OD+qtCap9roP3OmvknNHQKDG2+aIBojXhdINDfTCNUcG+PGj8PFwy5U4KANKYdq3Kk2EujTzX/HnXehvqFeifalOZQGSlLiuLKyArfeeiuOPvqPCDODqA1TSsLz7YV/uFl66pmpuOWWW7By9RqwYqbHuEt5H7rwHdQ7U30tYd+U9yrCcsJBeFJCV62Pl2QjM0stZ1xFmKlAY6oHUrWoPXKL46LmRw1vPF6Pz9+OwK0NiVeAAIBsbXIQONp97oGpMv2UyJLUG3Jhxvl3A0K2CW2nGE7+dxHcMu7K2yZCoToWnXYMc6jy1DRkzWe1+PSuRdCWqmciH8FXUpRMg4RHgSCBmgjKg+DXbVAgQVVolLWLaY2e0JLySKhMBZFbZpqi5iBWUoyCvfqgYt9+cEOFMDRmhPhiUKLJCE3qT1Dz8fdyJOOC/BcHA3c6M155BU8+9YxUgayuqUZjQ4Ni9Aq3JAkMkqFIFVtTuvBkKyv/AgFBRWUFysvK0a9fPwwePAg7bL+t5HkL6acZM/sX2jxlgyJt8RjIK1etwsszXsVzzz+PH3/8SUiM69evF8+CsLEltJEqVuQNJTUTyyLN9hAuFNH7VFKKTp06YcARAyTe2W2rLYWDIPoYbZmJUpqbuntigStqwpNQJ/ZOARmp+xff1Wm7Dvbu0wf33nOXPGeqrHVbLCrAyXXx/gdzMGLUKKyvXa8WSi8UQMJgYnHx/iEmd12cOPgEXHPN1VknPJJjL730csyb/xEsX6+ilQ1wop2ujc033wwXXXQRBgwY0CbAldp2HyAsX75cpJAXf7qkVdMoKp1akQUaucCee/XB5Zdfhu2228ZbZNs3O/jgms9CYaNPP/0Mjz/+BObOm4t1tfWSVkdekGRBkDPmLa7ynlNi/gLGpRaIGod0q1OwrLSkVEJbu+7aCyeeOFhc7NQWITDwNwW5Ataq6hrcfe/9eP6FFxLjaIP9fyvvjfarrCjDlClPoLSUYUM/lNGWnqjOpQ3IGbnyqqvAtFFbxPvSQwQZrvIxCdY69t+/L26ecDPyI5F2j0t/DqH5f/zpJzz+xBS8PGOGhD3oYeGmQ80PauOgCJxqc9FsHHrzJtVYKysq8eg//4F99t4ra7bWLwAIvn4jV0fm6TPcEJbiSoJg4jZqfnTxzpQmfDnThF1jwmDRJjZGSIoeYKAHwf+350EQche3C04D8qMROD1iOHFGPvQuXoy4ze9aER8VM1AXNUgrbqF+8Xp89fDniC4lEFGpiX4apIQTTMUlSKQmindAeQ9UiWYVkiBBkfEBkXD2sh/4mU9eFM5BWQny++whngPXZB0LJRGsFCM5CZP4RScaf+dnjbS5ob/BL6Q63jXE46pMM4daXX09ln75Fd6dNQvzP5qPmpoakWtmOKC2rk5JyXqa6UTG+fl5MlGxTkNeOCyVIHfYYQccetih2G7b7VSGghAT/R26GlC5xgezGjd1wqKDg9k8bIlX8KmuvgFLl36F2bNng7v0ahngTaivb0BTLI6mpiZxpfJgfJZtYfhD2kLVyIIC7NarFw7s3x877LA9ysvKVHwzQQVvmaWQ9YkTJ/gAgb/gIrFi+QrlVs04ISraJZnX+ZEwenTbStjuptH2qoAyBjwWfm1dPZYt/1kt9v6kK6tDKwujZ/OS0mJ07syMjdbSOZON4CTK2hkNjQ3iwhfeSaZWMq5smuKdofxwrgtcy0v6AIFqdgQJ3AVmW2z8hZn9oFPnjlLOV6cuTBu8Qsl7eF4rX2PQy1jh5wSwn372mUgMf/3N16itrRMFT1EnbWyUccb3KsDb65cE3lQ+pBhXcUEBtttuO/Trtz922WUXeQ9miAp+3oKZCuxyfHYKqi1fuVLun9jleotvNhUYzgNdu26hYvWiUtp20jFv5S/OFIZqbCRwynSd5miFACoUDmGLrl2RF1EqlO05/GfwNzP0ajAcS57QzJnv4NtvvhHtBr4rEqMbG+qlb3HO4buKRDgn5skz8CdrXhxx5BE46sgjUFKiAJTMUWke8BcABF5W1cUmSVExmilBLOKxcJ0YDNtE1bc2PpjagM//Y8CqykdIdA9Y3UGHI8REJg2wPoOSZaYeAjMdSGLktSP1OrQdqzHopXKgCyfObN2jldeg/LQi62x52uSMFWlRBzWLqvH9M5+j6fNq4UqIh8ZUlR2lumOCmKiAgEqHVIRG/l+RFaUqlQIEUgDK9yBYcA0ddkkFSvbsjdK9e8OJFEG3w0pymgxJ7o68dDf+k1UwE4Ssdnaq9nTE/913UgGCZL6mLFrJQjGxeEwAArXfq6uqBEGvqa5KDGLyBziBM/9ffpYWo7KyUmKAHlFGXVcQdmqqVvsX1Q1s1mJH40gdE+8lerFDn3zGcEpNTTVqqmskHrx6bZW0TwpLebsetqNDZaXUaKDaXHlFhYQVxLmecPV6zfL2nO1bPJKLs88NkR20hA+9RrUygfiEau7EhW4mVTYZW/Zt3rZelQAp9JrILkxZTyyYKr274eqrhlGK+zuTHcTL5LUvW3ydGVr+O/TBR9tapc72n83/6XuMWr2WUoZLfM/3KCgXNpn/7SMoMQ2veRdN8ch4gkTU9FizZq14udgfCWKr162HzdRrCd8YEt/3xxrrN7BQEEGM8oW2codE38l9rHFXrLxrnmxypkqPLYyovucJLYlXrX32UmEZlYUgGhDZAEIK70k9f3L+au+4pNdHBdP8d5XMW6D3s7auVuYQvidmglVVVQnAJ6BgSFXeU0W5bCYqKiplfqSKpfL6Jz1D7SrWlH0gNN/9KZej5yLzU4dsF2u/sfHBk1EsecOAVh1CKM4UR4r+MO6ue6qKJCiq/FUCCNFFsKkhrSHcpwqDp3WAVekgLBLM7Tik33pCShLbUyZ3mhxUL1qN76ctRnTJWoQJTAxNvAamzuwFDySQLyeLf0rNBl8XwQsnJDIhvBAD0x7jlR2Qv2dflO+yB4ziQlj0LLgGTM5o0m99p1Ryom+RqtyOxv7//5VWvIuK2OWvx2lN0PKb7epNORo4GT7J9oVW2+N9Kbcn3MABm+2WrX6eyg9p+wVyb2+2a/sLTTu2A9kurRbenG2b+5nZbtxe2yZt4b/j3HpE68/T3M2VjXcjn6fz3CT44i1cZ22wbiabZXu29EM8i650thfV7PP2vP/2fKdND7VRTvb7Y6Z++Qs9CBmeUxSomPNvQ4u7qPrawYdPN+CzV0PQ1hcADS7yWfIoRs+BSnmUYh8MNzga8qw4IjGgLhxHt/OjOGBUBewCC2Gd8flfMkBawk3AqXdQ/ckq/PDvBXCWVCFka4iFiRjjyKNss3gNFAchNcQg3gPPkyCSzAIekh4Ex3CR33t3lPY9BEZJZ2hmCDbtQbknf/u1EZuyUXpNcJHAAoEFAgsEFggsoPg9GRQn2msiz6XvssaAVDuygVgMdT8Z+HCaiyVPWzBqC2DXAxEu944loQXEQ17paA0hKtxZGpp6rsbRj5ShtBdLKOsIGxufwMd4kd3ooPbLNfhx6ofA0rVKPcsETIYNNFXkScktK62D1BAD4wVJKWX1GX9nhR2gezd0PuQohCu7QjPzJGbL8ELCixgAhPb2suB7gQUCCwQWCCywCS2wCQGCLd4DRwupWIwbkwyFpmoTXz4fx8x/rYbzUxfkC/8gBsMJwY6ZCJPk1KjB0V2sL6vBIaMj2PaMMBwutpoJM2McqO2WUviIapAOENdRt7QK3095B/o31ZKFbIeZw0qpZS+tUcCBJ6okaonMgGA8x09vTHoQmJZZX5CH8r6HoGK3faFHSsUFrkJVnrswAAhtf2nBNwILBBYILBBYYJNbYNMABMmzILnHECU5itYwDVKIga6NeNRAzVIdr9+xFitnhlDUUIJQ3Kv0CJaKbkKsvBr7XleJ7YcUwyhuApw8IferPO+Nu6rapC5S4IJ6DnEd9d/VYOnDLyP003qE6AGRYk0eAEgABJXGKCEF8SAwa8HzLnhVIEOaDcsw4Gy5LTr98c8IlXVNpIwxY8GvWr7J33Jwg8ACgQUCCwQWCCzQRgtsOoBAZ7pDQUym78U8NirV5FzYbgxwTGj1Jn74MIqFL1Tjh9nVCNXrQEhHt/3C2OuULqjcPQK3iBUk49CcAllcM9TaaGPTk6dTI4GCKOQ+OCJcA8R+XIfP75+GvDX1MPm5l8EgSoryx0+BZG6mJ5TkFWKiHgL5CSGCHUPH+oJybHbCKYhsvp1SnaRCpGbD8IoxtfvBgy8GFggsEFggsEBggU1kgU0EEHx1PD8Fku50pj4pJSpJQ2HEgFlUXF8tDU69BqcO0JlCXRaDHWE9Bg0hqeBEsiM1rVWK10Z2IEgIhE8oyU9cvJnDamto/L4a3zzxMvTla2C4qhgTwQEkm4EpRxRO8gWRVPVHEhWVRoIq9sSErYaCMlQeeTwKt9lbSlczHcyh50EEkTauN2QT9ZPgsoEFAgsEFggs8DuzwKYDCN6Sq+zJRVCpgimEwF95Ce9SnlkpalBSlmfaiIoEsSnVE9SXHAlRUNhkEyyonvSAqvmmUi1FxSxmo/6H1Vg2/T9o+nk5CixmUVhwDFZtJEBw4ISoScqSwXHJepAwgyezrBlUGYuhMRxG+RFDkbdtX7GDSdERnpO2dPXvrBcGzQ0sEFggsEBggV+dBTYhQPjVtTXnB0rND0XcQd03P2P5a7Pgfvcjwg75CKrEsytZDQooMKQgUsuS5qgq7EnFspCF+sICdD7mPOhddhQgJABBBEDaJ+CRc0OCEwMLBBYILBBYILBAOy0QAIRshmP54Wgc9d8tw+q3ZsP59jvk2azbEBNPgkkdBE8dWcpSeARFZjcYuoNYSAe67YxOhwyCXtwZmpRyJRNDpWtuAn9IthYFnwcWCCwQWCCwQGCBrBYIAEIGE4knwatWR139+u++R83b78H4+huYTiPssC2yzK5kMWheaIGchJjiIRgaoqWdUb7/0cjvvgeMcASaVMAkTDCDAEPW7hmcEFggsEBggcAC/ysLBAAhm+WFkkCSJOBYTaj74kusfWsWQitWQENMNKF1g1UmbRgaQw+KqOiYgF1YivzdDkDRrgcB+WUwvbqpjkZmBVUWAg9CNvMHnwcWCCwQWCCwwP/GAgFAyMHuifpJrgOnsR51P3yPVXM+hP7DMphaA0KII+xGEdLjiGsu4uEQ7KJiFO/SB4W77AenuLOUqTYoyMRyzlKGwSNC5nD/4JTAAoEFAgsEFggs8N+2QAAQslhcpT966ofkIzAv047CXVeDdZ9+hupPPwBq1yIPMeouIpqXD33z7ujQa28UbNETbkE5bMOEaUcFJFhaSC5mSn6n1MD7b7/z4H6BBQILBBYILBBYIKsFAoCQI0Bg/QRfK0F2/6LlYMGN1iK2egXiTbWSghkqrUCoogs0M1/KX0uxTinjTLVGJcREiqKUdd4EqpBZ33hwQmCBwAKBBQILBBbIwQIBQMjBSMEpgQUCCwQWCCwQWOD3ZoEAIPze3njQ3sACgQUCCwQWCCyQgwUCgJCDkYJTAgsEFggsEFggsMDvzQIBQPi9vfGgvYEFAgsEFggsEFggBwsEACEHIwWnBBYILBBYILBAYIHfmwUCgPB7e+NBewMLBBYILBBYILBADhYIAEIORgpOCSwQWCCwQGCBwAK/NwsEAOH39saD9gYWCCwQWCCwQGCBHCwQAIQcjBScElggsEBggcACgQV+bxb4fxa7IJr/rS/wAAAAAElFTkSuQmCC;" parent="1" vertex="1">
          <mxGeometry x="360" y="670.53" width="85" height="18.47" as="geometry" />
        </mxCell>
        <mxCell id="164" value="Examples:" style="text;html=1;strokeColor=none;fillColor=none;align=center;verticalAlign=middle;whiteSpace=wrap;rounded=0;dashed=1;dashPattern=1 1;fontFamily=Comic Sans MS;fontSize=10;fontColor=#000000;" parent="1" vertex="1">
          <mxGeometry x="379" y="642" width="60" height="30" as="geometry" />
        </mxCell>
        <mxCell id="Byzy1Sj_OkODL2Q9-8B9-164" value="" style="shape=image;verticalLabelPosition=bottom;labelBackgroundColor=default;verticalAlign=top;aspect=fixed;imageAspect=0;image=data:image/png,iVBORw0KGgoAAAANSUhEUgAAAIoAAAA3CAYAAADT09LPAAAABHNCSVQICAgIfAhkiAAAABl0RVh0U29mdHdhcmUAZ25vbWUtc2NyZWVuc2hvdO8Dvz4AAAAsdEVYdENyZWF0aW9uIFRpbWUAS2hhbWlzIDI3IEp1bCAyMDIzIDA2OjI2OjAzIFBNPvg4+gAABm5JREFUeJztml9IW1ccx7+WjSk6UzvKokkLDQpbUjrFQpVaX8ysuhbGSEJf+pDa+mac5qHqoM5Cq32wzmRPTgl0L10SxmDOZqt9UWtWWNUNr4Nly0s1teuYywykpbDsIbnX3DSac/PHaPP7QDBcz++ck3M/93fuPffkbTz9LwSCSMC+bHeA2BuQKAQTJArBBIlCMEGiEEyQKAQTJArBBIlCMEGiEEyQKAQTr0kp7J1cw13TL3juf4GDR2XQWo/h4NHiTPWN2EXksb7r+fX2Cu62/yw69obsdXz0TQ3JkgMwTT3xJAGA5/4X+PrDH/F06d+0d4zYXSQUZStJeEiW3CChKKv3/05YyXP/C/xForzSJBRFaz0G9blD25Z53/oe3j2nTFuniN0H01OP1noMALB8+9FL/4uV5I79Ico1pajQlKWpi+xYDn4nfDf9+QGQB/ReuIXZ75cBANOrg3Hj6hXdAIAKTRnGfzABEMclIpm4U00a9NzUoUhWsCPtxcZJhXkdJV5miSfJQKcDHfov4OF8SXUoFfL25QnfQ6HwwxzrIAIQ9TnTcTMuDtc7HTvWXmycVCQtuEXLspUkABDwB7Mmy15CyknONpIW3ICwLO+cU0B58i3hWLQkPLwsI45LOzYNtT9pyUi906uDsA1NwXZzCgBg7NLCaNYKU9Z2cbF4OB9aGy2S41j7mSmSWsJPJAkPZZaXyca9WzqQnFGiWXB7t5SEZyczS/QVnsmrKxVYLpqtMlU2f1NKolTVqtBkqIbL/nDbctmYhnYDiaamvURKogBA77AeAEiWJKg7rY57XErm2Kksk5ZtBr3DejQZqhOW42UJ+IPpaHZPU3daLVxke4GUMwqPlMwy6XgIw8U6SfWnI43v9FSQ7NXO0k++buvbkwhFNgC0P2kRrSWlE9q4RDCRNlGudzoSZhMAKCzOR4s+8TQVy1bzeTzK1aV7Ii6aZNvbrypMqj2pMG9c2g4pklicbXQzuwdJOaOQJLlBSqKQJLlD0qKQJLlFUqKQJLmHZFGyJUm9olv08XA+1Cu6seD2AgAMJ27ANjSFgD+IgU4n6hXdaFH34479JyGeL7vg9orWKhxjs6hXdMMxNitqjy9vG5qCSTcKILyPxHDiBuoV3ejQjSLgDwr18R++LACYdKPC8dZGCzycD9YrE+iIlAn4g6J+xrYd23688TDpRuOWSSeSRMl2JhlxtmF6dRDTq4Oo0JRB31qHz/smYBuKvP43a2H9dAKepVXYH1zGtfHzGOh0Ym1lfdt6XfZ5yJUlcNnnRcc/af1StIq8trKOgS4n9JdOYnK5D4XF+aLNR3zfLM42UT3GLi0ml/sQCoUw61qG0dyA3zgfZlwcHGP3UfRmPpoNx5Mej9j2MgHzymy2JQHCJ3TR7YVcuR/NhuMwmhtwoZGD7eYURiKDtTDnhdHcALmyBHJliWh1lI9fe/SPcGxtZR0ezocRZxs6dKNYW1mHXFkCAJAr9mOgyymsW3iWfAiFQtBfrMPayjoMl8Kry/z6Ar9fpbJWhapaldDGotsLRBZM65rUKJIVwHCxDta+CQQ2nuHa+PmUxqMyqq1MwZRRdoMkYUKbZyVCYONZ+C/T+yM+frOSGReHIlkBFt1eFMkKMOPihP8ZzVp4lnzCTrQiWQHy8sJnfGHuD1iufIvrHztE1cf2DwDkh0oE2VxfzQt1A+HFs6qkT/TL45EpEmaU3SMJ0GSoFg2qbeieMNDWvglU1apw6rQGzrE5lGvK8Dv3GAOdDtgfXBbFL7i9uBP5TS77PCprjgAhoLLmCFz2eegj76GKZAXo+UyPDt0oKmtVqFCXIhQKwTE+i8oaFUoPHxD25gKbJz8WubIEVbUquA4fgGd5cz+K/FCJJEkC/iA8y4+FmOjxWJzzbheaMgkzCssP2amnm46oG8MFtxeO8Vm0958RTpBt6B6M5gaUa0rR2miBbWgKPcM6YSqJxcP54OF8MF09C6NZC9PVs/BwPtE9TVWtCvrWTXF6h/VwjN5Ha6MFG/6g6A1wvJtZIDwltaj7seEPor3/jKTfGl3X45V19F64xTZYaYZpCX+77Y70CJwbMN2jNBuq0RNn7wRJkjswPx43G6pxbfw8CovzAQDl6jKSJIdIy9tj4tWHNi4RTJAoBBMkCsEEiUIwQaIQTJAoBBMkCsEEiUIwQaIQTJAoBBMkCsHE/1j/+OV4RLCuAAAAAElFTkSuQmCC;" vertex="1" parent="1">
          <mxGeometry x="464.9999999999999" y="663.76" width="80.29" height="32" as="geometry" />
        </mxCell>
      </root>
    </mxGraphModel>
  </diagram>
</mxfile>
